<svg width="1728" height="1118" viewBox="0 0 1728 1118" fill="none" xmlns="http://www.w3.org/2000/svg">
<g clip-path="url(#clip0_4_2)">
<rect width="1728" height="1118" fill="#F4F4F5"/>
<g filter="url(#filter0_d_4_2)">
<rect x="425" y="78" width="878.959" height="962" rx="30.6614" fill="white"/>
<rect x="427.555" y="80.5551" width="873.849" height="956.89" rx="28.1062" stroke="#E4E4E7" stroke-width="5.11023"/>
</g>
<rect x="492.71" y="442.103" width="742.26" height="84.3187" rx="12.7756" fill="white" stroke="#E4E4E7" stroke-width="5.11023"/>
<rect x="492.71" y="643.957" width="742.26" height="75.3758" rx="12.7756" fill="white" stroke="#E4E4E7" stroke-width="5.11023"/>
<rect x="492.71" y="771.713" width="35.7716" height="35.7716" rx="12.7756" fill="white" stroke="#E4E4E7" stroke-width="5.11023"/>
<rect x="490.155" y="880.305" width="747.371" height="80.4861" rx="12.7756" fill="#18181B"/>
<path d="M517.637 179.871C517.492 178.274 516.846 177.032 515.699 176.147C514.567 175.247 512.948 174.797 510.843 174.797C509.449 174.797 508.288 174.978 507.359 175.341C506.43 175.704 505.733 176.205 505.268 176.844C504.804 177.468 504.564 178.187 504.55 179C504.521 179.667 504.651 180.255 504.942 180.763C505.246 181.272 505.682 181.722 506.248 182.114C506.829 182.491 507.526 182.825 508.339 183.115C509.152 183.406 510.066 183.66 511.083 183.877L514.915 184.749C517.122 185.228 519.067 185.866 520.751 186.665C522.45 187.463 523.873 188.414 525.019 189.518C526.181 190.621 527.059 191.891 527.654 193.328C528.25 194.766 528.555 196.377 528.569 198.163C528.555 200.979 527.843 203.397 526.435 205.414C525.027 207.432 523.002 208.979 520.359 210.053C517.732 211.127 514.56 211.664 510.843 211.664C507.112 211.664 503.86 211.105 501.087 209.988C498.314 208.87 496.158 207.171 494.619 204.892C493.081 202.613 492.289 199.731 492.246 196.247H502.568C502.655 197.684 503.04 198.882 503.722 199.84C504.404 200.798 505.341 201.524 506.531 202.017C507.736 202.511 509.13 202.758 510.712 202.758C512.164 202.758 513.398 202.562 514.414 202.17C515.445 201.778 516.236 201.233 516.788 200.537C517.34 199.84 517.623 199.041 517.637 198.141C517.623 197.299 517.361 196.58 516.853 195.985C516.345 195.375 515.561 194.853 514.501 194.417C513.456 193.967 512.121 193.554 510.495 193.176L505.834 192.087C501.973 191.202 498.931 189.772 496.71 187.797C494.489 185.808 493.385 183.123 493.4 179.74C493.385 176.982 494.126 174.564 495.621 172.488C497.117 170.412 499.185 168.794 501.827 167.632C504.47 166.471 507.482 165.89 510.865 165.89C514.32 165.89 517.318 166.478 519.858 167.654C522.414 168.815 524.395 170.449 525.803 172.554C527.212 174.659 527.93 177.098 527.959 179.871H517.637ZM534.013 211.098V177.649H544.662V211.098H534.013ZM539.348 173.751C537.853 173.751 536.568 173.258 535.494 172.271C534.42 171.269 533.883 170.064 533.883 168.656C533.883 167.262 534.42 166.072 535.494 165.084C536.568 164.083 537.853 163.582 539.348 163.582C540.858 163.582 542.143 164.083 543.203 165.084C544.277 166.072 544.814 167.262 544.814 168.656C544.814 170.064 544.277 171.269 543.203 172.271C542.143 173.258 540.858 173.751 539.348 173.751ZM567.032 224.338C563.852 224.338 561.13 223.895 558.866 223.01C556.601 222.124 554.822 220.912 553.53 219.373C552.238 217.834 551.462 216.092 551.2 214.147L561.283 213.581C561.472 214.263 561.82 214.858 562.328 215.366C562.851 215.874 563.526 216.266 564.353 216.542C565.195 216.818 566.183 216.956 567.315 216.956C569.101 216.956 570.574 216.521 571.736 215.649C572.912 214.793 573.5 213.29 573.5 211.142V205.262H573.129C572.708 206.293 572.07 207.215 571.213 208.028C570.356 208.841 569.289 209.479 568.012 209.944C566.749 210.409 565.297 210.641 563.657 210.641C561.218 210.641 558.982 210.075 556.949 208.942C554.931 207.795 553.313 206.024 552.093 203.629C550.888 201.219 550.286 198.119 550.286 194.33C550.286 190.425 550.91 187.209 552.159 184.683C553.407 182.143 555.04 180.263 557.058 179.043C559.091 177.824 561.276 177.214 563.613 177.214C565.37 177.214 566.872 177.519 568.121 178.128C569.384 178.724 570.422 179.493 571.235 180.437C572.048 181.38 572.665 182.36 573.086 183.377H573.391V177.649H583.996V211.229C583.996 214.06 583.284 216.448 581.862 218.393C580.439 220.339 578.45 221.812 575.895 222.814C573.34 223.83 570.385 224.338 567.032 224.338ZM567.359 202.888C568.651 202.888 569.754 202.547 570.669 201.865C571.583 201.183 572.287 200.203 572.781 198.925C573.274 197.648 573.521 196.116 573.521 194.33C573.521 192.516 573.274 190.955 572.781 189.648C572.302 188.327 571.598 187.311 570.669 186.6C569.754 185.888 568.651 185.532 567.359 185.532C566.037 185.532 564.92 185.895 564.005 186.621C563.09 187.347 562.393 188.371 561.914 189.692C561.45 190.998 561.218 192.545 561.218 194.33C561.218 196.116 561.457 197.648 561.936 198.925C562.415 200.203 563.105 201.183 564.005 201.865C564.92 202.547 566.037 202.888 567.359 202.888ZM601.433 192.022V211.098H590.785V177.649H600.911V183.79H601.281C602.021 181.743 603.284 180.139 605.07 178.978C606.856 177.802 608.983 177.214 611.451 177.214C613.802 177.214 615.842 177.744 617.57 178.804C619.312 179.849 620.662 181.315 621.62 183.202C622.593 185.075 623.072 187.267 623.057 189.779V211.098H612.409V191.869C612.423 190.011 611.951 188.559 610.993 187.514C610.05 186.469 608.736 185.946 607.052 185.946C605.934 185.946 604.947 186.193 604.09 186.687C603.248 187.166 602.595 187.855 602.13 188.755C601.68 189.656 601.448 190.744 601.433 192.022ZM669.806 166.5H680.564V195.267C680.564 198.591 679.773 201.487 678.19 203.955C676.608 206.409 674.401 208.311 671.57 209.661C668.739 210.997 665.451 211.664 661.705 211.664C657.916 211.664 654.606 210.997 651.775 209.661C648.944 208.311 646.745 206.409 645.177 203.955C643.609 201.487 642.825 198.591 642.825 195.267V166.5H653.604V194.33C653.604 195.869 653.938 197.241 654.606 198.446C655.289 199.651 656.239 200.595 657.459 201.277C658.678 201.959 660.094 202.3 661.705 202.3C663.317 202.3 664.725 201.959 665.93 201.277C667.149 200.595 668.1 199.651 668.783 198.446C669.465 197.241 669.806 195.869 669.806 194.33V166.5ZM687.32 223.641V177.649H697.86V183.377H698.186C698.622 182.36 699.239 181.38 700.037 180.437C700.85 179.493 701.881 178.724 703.13 178.128C704.393 177.519 705.903 177.214 707.659 177.214C709.982 177.214 712.152 177.824 714.17 179.043C716.203 180.263 717.843 182.143 719.092 184.683C720.34 187.224 720.965 190.461 720.965 194.396C720.965 198.185 720.362 201.357 719.157 203.912C717.967 206.467 716.355 208.383 714.323 209.661C712.305 210.938 710.062 211.577 707.594 211.577C705.91 211.577 704.451 211.301 703.217 210.75C701.983 210.198 700.945 209.472 700.103 208.572C699.275 207.672 698.637 206.707 698.186 205.676H697.969V223.641H687.32ZM697.751 194.374C697.751 196.174 697.99 197.742 698.47 199.077C698.963 200.413 699.667 201.451 700.582 202.192C701.511 202.917 702.622 203.28 703.914 203.28C705.22 203.28 706.331 202.917 707.245 202.192C708.16 201.451 708.85 200.413 709.314 199.077C709.793 197.742 710.033 196.174 710.033 194.374C710.033 192.574 709.793 191.013 709.314 189.692C708.85 188.371 708.16 187.347 707.245 186.621C706.345 185.895 705.235 185.532 703.914 185.532C702.607 185.532 701.496 185.888 700.582 186.6C699.667 187.311 698.963 188.327 698.47 189.648C697.99 190.969 697.751 192.545 697.751 194.374Z" fill="#18181B"/>
<path d="M492.406 276.748V258.165H494.656V274.751H503.294V276.748H492.406ZM512.15 277.038C510.891 277.038 509.787 276.738 508.838 276.14C507.894 275.541 507.156 274.703 506.624 273.626C506.098 272.55 505.834 271.291 505.834 269.852C505.834 268.4 506.098 267.133 506.624 266.05C507.156 264.967 507.894 264.126 508.838 263.527C509.787 262.929 510.891 262.629 512.15 262.629C513.408 262.629 514.509 262.929 515.452 263.527C516.402 264.126 517.14 264.967 517.666 266.05C518.199 267.133 518.465 268.4 518.465 269.852C518.465 271.291 518.199 272.55 517.666 273.626C517.14 274.703 516.402 275.541 515.452 276.14C514.509 276.738 513.408 277.038 512.15 277.038ZM512.15 275.114C513.105 275.114 513.892 274.869 514.509 274.379C515.126 273.889 515.582 273.245 515.879 272.447C516.175 271.648 516.323 270.783 516.323 269.852C516.323 268.92 516.175 268.052 515.879 267.248C515.582 266.443 515.126 265.793 514.509 265.297C513.892 264.801 513.105 264.553 512.15 264.553C511.194 264.553 510.407 264.801 509.79 265.297C509.173 265.793 508.717 266.443 508.42 267.248C508.124 268.052 507.976 268.92 507.976 269.852C507.976 270.783 508.124 271.648 508.42 272.447C508.717 273.245 509.173 273.889 509.79 274.379C510.407 274.869 511.194 275.114 512.15 275.114ZM521.734 276.748V262.811H523.802V264.916H523.947C524.202 264.226 524.661 263.667 525.327 263.237C525.992 262.808 526.742 262.593 527.577 262.593C527.734 262.593 527.931 262.596 528.167 262.602C528.403 262.608 528.581 262.617 528.702 262.629V264.807C528.629 264.789 528.463 264.761 528.203 264.725C527.949 264.683 527.68 264.662 527.395 264.662C526.718 264.662 526.113 264.804 525.581 265.088C525.054 265.366 524.637 265.753 524.329 266.249C524.026 266.739 523.875 267.299 523.875 267.928V276.748H521.734ZM536.66 277.038C535.317 277.038 534.158 276.742 533.184 276.149C532.216 275.55 531.469 274.715 530.943 273.644C530.423 272.568 530.163 271.316 530.163 269.888C530.163 268.46 530.423 267.202 530.943 266.113C531.469 265.018 532.201 264.166 533.139 263.555C534.083 262.938 535.184 262.629 536.442 262.629C537.168 262.629 537.884 262.75 538.592 262.992C539.3 263.234 539.944 263.627 540.525 264.172C541.106 264.71 541.568 265.424 541.913 266.313C542.258 267.202 542.43 268.297 542.43 269.598V270.505H531.687V268.654H540.253C540.253 267.868 540.095 267.166 539.781 266.549C539.472 265.932 539.031 265.445 538.456 265.088C537.887 264.731 537.216 264.553 536.442 264.553C535.589 264.553 534.851 264.764 534.228 265.188C533.611 265.605 533.136 266.15 532.803 266.821C532.471 267.493 532.304 268.212 532.304 268.981V270.215C532.304 271.267 532.486 272.159 532.849 272.891C533.218 273.617 533.729 274.171 534.382 274.552C535.035 274.927 535.794 275.114 536.66 275.114C537.222 275.114 537.73 275.036 538.184 274.878C538.644 274.715 539.04 274.473 539.373 274.153C539.705 273.826 539.962 273.421 540.144 272.937L542.213 273.517C541.995 274.219 541.629 274.836 541.115 275.368C540.6 275.895 539.965 276.306 539.209 276.602C538.453 276.893 537.603 277.038 536.66 277.038ZM545.688 276.748V262.811H547.756V264.988H547.938C548.228 264.244 548.697 263.667 549.344 263.255C549.992 262.838 550.769 262.629 551.676 262.629C552.596 262.629 553.361 262.838 553.972 263.255C554.589 263.667 555.07 264.244 555.415 264.988H555.56C555.917 264.268 556.452 263.697 557.166 263.273C557.88 262.844 558.735 262.629 559.734 262.629C560.98 262.629 561.999 263.019 562.791 263.8C563.584 264.574 563.98 265.781 563.98 267.42V276.748H561.839V267.42C561.839 266.392 561.557 265.657 560.995 265.215C560.432 264.773 559.77 264.553 559.008 264.553C558.028 264.553 557.269 264.849 556.73 265.442C556.192 266.029 555.923 266.773 555.923 267.674V276.748H553.745V267.202C553.745 266.41 553.488 265.772 552.974 265.288C552.46 264.798 551.797 264.553 550.987 264.553C550.43 264.553 549.91 264.701 549.426 264.997C548.948 265.294 548.561 265.705 548.265 266.231C547.974 266.752 547.829 267.353 547.829 268.037V276.748H545.688ZM575.081 276.748V262.811H577.223V276.748H575.081ZM576.17 260.488C575.753 260.488 575.393 260.346 575.091 260.061C574.794 259.777 574.646 259.435 574.646 259.036C574.646 258.637 574.794 258.295 575.091 258.011C575.393 257.726 575.753 257.584 576.17 257.584C576.588 257.584 576.945 257.726 577.241 258.011C577.543 258.295 577.695 258.637 577.695 259.036C577.695 259.435 577.543 259.777 577.241 260.061C576.945 260.346 576.588 260.488 576.17 260.488ZM581.145 281.974V262.811H583.214V265.025H583.468C583.625 264.783 583.843 264.474 584.121 264.099C584.405 263.718 584.811 263.379 585.337 263.083C585.869 262.78 586.589 262.629 587.496 262.629C588.67 262.629 589.704 262.922 590.6 263.509C591.495 264.096 592.193 264.928 592.696 266.004C593.198 267.081 593.449 268.351 593.449 269.815C593.449 271.291 593.198 272.571 592.696 273.653C592.193 274.73 591.498 275.565 590.609 276.158C589.719 276.745 588.694 277.038 587.533 277.038C586.637 277.038 585.921 276.89 585.382 276.593C584.844 276.291 584.429 275.949 584.139 275.568C583.849 275.181 583.625 274.86 583.468 274.606H583.286V281.974H581.145ZM583.25 269.779C583.25 270.832 583.404 271.76 583.713 272.565C584.021 273.363 584.472 273.989 585.065 274.443C585.657 274.891 586.383 275.114 587.242 275.114C588.138 275.114 588.885 274.878 589.483 274.407C590.088 273.929 590.542 273.288 590.844 272.483C591.153 271.672 591.307 270.771 591.307 269.779C591.307 268.799 591.156 267.916 590.854 267.13C590.557 266.337 590.107 265.711 589.502 265.251C588.903 264.786 588.15 264.553 587.242 264.553C586.371 264.553 585.639 264.773 585.046 265.215C584.454 265.651 584.006 266.262 583.704 267.048C583.401 267.828 583.25 268.739 583.25 269.779ZM606.587 265.932L604.664 266.476C604.543 266.156 604.364 265.844 604.128 265.542C603.898 265.233 603.584 264.979 603.185 264.78C602.785 264.58 602.274 264.48 601.651 264.48C600.798 264.48 600.087 264.677 599.519 265.07C598.956 265.457 598.675 265.95 598.675 266.549C598.675 267.081 598.869 267.502 599.256 267.81C599.643 268.119 600.248 268.376 601.07 268.581L603.139 269.089C604.385 269.392 605.314 269.855 605.925 270.478C606.536 271.095 606.841 271.89 606.841 272.864C606.841 273.663 606.611 274.376 606.152 275.005C605.698 275.635 605.063 276.131 604.246 276.493C603.43 276.856 602.48 277.038 601.397 277.038C599.976 277.038 598.799 276.729 597.867 276.112C596.936 275.495 596.346 274.594 596.098 273.408L598.131 272.9C598.324 273.65 598.69 274.213 599.228 274.588C599.773 274.963 600.484 275.151 601.361 275.151C602.359 275.151 603.151 274.939 603.738 274.515C604.331 274.086 604.627 273.572 604.627 272.973C604.627 272.489 604.458 272.084 604.119 271.757C603.78 271.424 603.26 271.176 602.558 271.013L600.236 270.469C598.959 270.166 598.022 269.697 597.423 269.062C596.83 268.421 596.534 267.62 596.534 266.658C596.534 265.871 596.754 265.176 597.196 264.571C597.644 263.966 598.252 263.491 599.02 263.146C599.794 262.802 600.671 262.629 601.651 262.629C603.03 262.629 604.113 262.932 604.899 263.536C605.692 264.141 606.254 264.94 606.587 265.932ZM618.848 271.049V262.811H620.989V276.748H618.848V274.388H618.703C618.376 275.096 617.868 275.698 617.178 276.194C616.489 276.684 615.618 276.929 614.565 276.929C613.694 276.929 612.92 276.738 612.242 276.357C611.565 275.97 611.032 275.39 610.645 274.615C610.258 273.835 610.065 272.852 610.065 271.666V262.811H612.206V271.521C612.206 272.537 612.49 273.348 613.059 273.953C613.633 274.558 614.365 274.86 615.255 274.86C615.787 274.86 616.328 274.724 616.879 274.452C617.435 274.18 617.901 273.762 618.276 273.2C618.657 272.637 618.848 271.92 618.848 271.049ZM624.911 276.748V262.811H626.98V264.988H627.161C627.452 264.244 627.921 263.667 628.568 263.255C629.215 262.838 629.992 262.629 630.9 262.629C631.819 262.629 632.584 262.838 633.195 263.255C633.812 263.667 634.293 264.244 634.638 264.988H634.783C635.14 264.268 635.675 263.697 636.389 263.273C637.103 262.844 637.959 262.629 638.957 262.629C640.203 262.629 641.222 263.019 642.015 263.8C642.807 264.574 643.203 265.781 643.203 267.42V276.748H641.062V267.42C641.062 266.392 640.781 265.657 640.218 265.215C639.656 264.773 638.993 264.553 638.231 264.553C637.251 264.553 636.492 264.849 635.954 265.442C635.415 266.029 635.146 266.773 635.146 267.674V276.748H632.968V267.202C632.968 266.41 632.711 265.772 632.197 265.288C631.683 264.798 631.021 264.553 630.21 264.553C629.654 264.553 629.133 264.701 628.649 264.997C628.172 265.294 627.784 265.705 627.488 266.231C627.198 266.752 627.053 267.353 627.053 268.037V276.748H624.911ZM659.568 277.038C658.406 277.038 657.381 276.745 656.492 276.158C655.602 275.565 654.907 274.73 654.405 273.653C653.903 272.571 653.652 271.291 653.652 269.815C653.652 268.351 653.903 267.081 654.405 266.004C654.907 264.928 655.605 264.096 656.501 263.509C657.396 262.922 658.43 262.629 659.604 262.629C660.511 262.629 661.228 262.78 661.754 263.083C662.287 263.379 662.692 263.718 662.97 264.099C663.254 264.474 663.475 264.783 663.633 265.025H663.814V258.165H665.955V276.748H663.887V274.606H663.633C663.475 274.86 663.251 275.181 662.961 275.568C662.671 275.949 662.256 276.291 661.718 276.593C661.18 276.89 660.463 277.038 659.568 277.038ZM659.858 275.114C660.717 275.114 661.443 274.891 662.036 274.443C662.628 273.989 663.079 273.363 663.388 272.565C663.696 271.76 663.85 270.832 663.85 269.779C663.85 268.739 663.699 267.828 663.397 267.048C663.094 266.262 662.647 265.651 662.054 265.215C661.461 264.773 660.729 264.553 659.858 264.553C658.951 264.553 658.194 264.786 657.59 265.251C656.991 265.711 656.54 266.337 656.238 267.13C655.941 267.916 655.793 268.799 655.793 269.779C655.793 270.771 655.944 271.672 656.247 272.483C656.555 273.288 657.009 273.929 657.608 274.407C658.213 274.878 658.963 275.114 659.858 275.114ZM675.836 277.038C674.578 277.038 673.474 276.738 672.525 276.14C671.581 275.541 670.843 274.703 670.311 273.626C669.784 272.55 669.521 271.291 669.521 269.852C669.521 268.4 669.784 267.133 670.311 266.05C670.843 264.967 671.581 264.126 672.525 263.527C673.474 262.929 674.578 262.629 675.836 262.629C677.095 262.629 678.196 262.929 679.139 263.527C680.089 264.126 680.827 264.967 681.353 266.05C681.886 267.133 682.152 268.4 682.152 269.852C682.152 271.291 681.886 272.55 681.353 273.626C680.827 274.703 680.089 275.541 679.139 276.14C678.196 276.738 677.095 277.038 675.836 277.038ZM675.836 275.114C676.792 275.114 677.579 274.869 678.196 274.379C678.813 273.889 679.269 273.245 679.566 272.447C679.862 271.648 680.01 270.783 680.01 269.852C680.01 268.92 679.862 268.052 679.566 267.248C679.269 266.443 678.813 265.793 678.196 265.297C677.579 264.801 676.792 264.553 675.836 264.553C674.881 264.553 674.094 264.801 673.477 265.297C672.86 265.793 672.404 266.443 672.107 267.248C671.811 268.052 671.663 268.92 671.663 269.852C671.663 270.783 671.811 271.648 672.107 272.447C672.404 273.245 672.86 273.889 673.477 274.379C674.094 274.869 674.881 275.114 675.836 275.114ZM687.562 258.165V276.748H685.42V258.165H687.562ZM697.146 277.038C695.888 277.038 694.784 276.738 693.834 276.14C692.89 275.541 692.152 274.703 691.62 273.626C691.094 272.55 690.831 271.291 690.831 269.852C690.831 268.4 691.094 267.133 691.62 266.05C692.152 264.967 692.89 264.126 693.834 263.527C694.784 262.929 695.888 262.629 697.146 262.629C698.404 262.629 699.505 262.929 700.449 263.527C701.398 264.126 702.136 264.967 702.662 266.05C703.195 267.133 703.461 268.4 703.461 269.852C703.461 271.291 703.195 272.55 702.662 273.626C702.136 274.703 701.398 275.541 700.449 276.14C699.505 276.738 698.404 277.038 697.146 277.038ZM697.146 275.114C698.101 275.114 698.888 274.869 699.505 274.379C700.122 273.889 700.579 273.245 700.875 272.447C701.171 271.648 701.32 270.783 701.32 269.852C701.32 268.92 701.171 268.052 700.875 267.248C700.579 266.443 700.122 265.793 699.505 265.297C698.888 264.801 698.101 264.553 697.146 264.553C696.19 264.553 695.404 264.801 694.787 265.297C694.17 265.793 693.713 266.443 693.416 267.248C693.12 268.052 692.972 268.92 692.972 269.852C692.972 270.783 693.12 271.648 693.416 272.447C693.713 273.245 694.17 273.889 694.787 274.379C695.404 274.869 696.19 275.114 697.146 275.114ZM706.73 276.748V262.811H708.798V264.916H708.944C709.198 264.226 709.657 263.667 710.323 263.237C710.988 262.808 711.738 262.593 712.573 262.593C712.73 262.593 712.927 262.596 713.163 262.602C713.399 262.608 713.577 262.617 713.698 262.629V264.807C713.626 264.789 713.459 264.761 713.199 264.725C712.945 264.683 712.676 264.662 712.392 264.662C711.714 264.662 711.109 264.804 710.577 265.088C710.051 265.366 709.633 265.753 709.325 266.249C709.022 266.739 708.871 267.299 708.871 267.928V276.748H706.73ZM733.295 265.932L731.371 266.476C731.25 266.156 731.072 265.844 730.836 265.542C730.606 265.233 730.291 264.979 729.892 264.78C729.493 264.58 728.982 264.48 728.359 264.48C727.506 264.48 726.795 264.677 726.226 265.07C725.664 265.457 725.383 265.95 725.383 266.549C725.383 267.081 725.576 267.502 725.963 267.81C726.35 268.119 726.955 268.376 727.778 268.581L729.847 269.089C731.093 269.392 732.021 269.855 732.632 270.478C733.243 271.095 733.549 271.89 733.549 272.864C733.549 273.663 733.319 274.376 732.859 275.005C732.406 275.635 731.77 276.131 730.954 276.493C730.137 276.856 729.187 277.038 728.105 277.038C726.683 277.038 725.507 276.729 724.575 276.112C723.644 275.495 723.054 274.594 722.806 273.408L724.838 272.9C725.032 273.65 725.398 274.213 725.936 274.588C726.481 274.963 727.191 275.151 728.068 275.151C729.066 275.151 729.859 274.939 730.446 274.515C731.038 274.086 731.335 273.572 731.335 272.973C731.335 272.489 731.165 272.084 730.827 271.757C730.488 271.424 729.968 271.176 729.266 271.013L726.943 270.469C725.667 270.166 724.729 269.697 724.13 269.062C723.538 268.421 723.241 267.62 723.241 266.658C723.241 265.871 723.462 265.176 723.904 264.571C724.351 263.966 724.959 263.491 725.727 263.146C726.502 262.802 727.379 262.629 728.359 262.629C729.738 262.629 730.821 262.932 731.607 263.536C732.4 264.141 732.962 264.94 733.295 265.932ZM736.772 276.748V262.811H738.914V276.748H736.772ZM737.861 260.488C737.444 260.488 737.084 260.346 736.781 260.061C736.485 259.777 736.337 259.435 736.337 259.036C736.337 258.637 736.485 258.295 736.781 258.011C737.084 257.726 737.444 257.584 737.861 257.584C738.278 257.584 738.635 257.726 738.932 258.011C739.234 258.295 739.385 258.637 739.385 259.036C739.385 259.435 739.234 259.777 738.932 260.061C738.635 260.346 738.278 260.488 737.861 260.488ZM748.897 262.811V264.625H741.674V262.811H748.897ZM743.779 259.472H745.921V272.755C745.921 273.36 746.008 273.814 746.184 274.116C746.365 274.413 746.595 274.612 746.873 274.715C747.158 274.812 747.457 274.86 747.772 274.86C748.008 274.86 748.201 274.848 748.352 274.824C748.504 274.794 748.625 274.77 748.715 274.751L749.151 276.675C749.006 276.729 748.803 276.784 748.543 276.838C748.283 276.899 747.953 276.929 747.554 276.929C746.949 276.929 746.356 276.799 745.775 276.539C745.201 276.279 744.723 275.883 744.342 275.35C743.967 274.818 743.779 274.146 743.779 273.336V259.472ZM763.405 277.074C762.522 277.074 761.721 276.908 761.001 276.575C760.281 276.236 759.709 275.749 759.286 275.114C758.863 274.473 758.651 273.699 758.651 272.791C758.651 271.993 758.808 271.346 759.123 270.85C759.437 270.348 759.858 269.954 760.384 269.67C760.91 269.386 761.491 269.174 762.126 269.035C762.767 268.89 763.411 268.775 764.059 268.69C764.906 268.581 765.592 268.5 766.118 268.445C766.651 268.385 767.038 268.285 767.28 268.146C767.528 268.007 767.652 267.765 767.652 267.42V267.347C767.652 266.452 767.407 265.756 766.917 265.26C766.433 264.764 765.698 264.516 764.712 264.516C763.69 264.516 762.888 264.74 762.307 265.188C761.727 265.635 761.318 266.113 761.083 266.621L759.05 265.896C759.413 265.049 759.897 264.389 760.502 263.918C761.113 263.44 761.778 263.107 762.498 262.919C763.224 262.726 763.938 262.629 764.639 262.629C765.087 262.629 765.601 262.684 766.182 262.792C766.769 262.895 767.334 263.11 767.879 263.437C768.429 263.763 768.886 264.256 769.249 264.916C769.612 265.575 769.793 266.458 769.793 267.565V276.748H767.652V274.86H767.543C767.398 275.163 767.156 275.486 766.817 275.831C766.478 276.176 766.028 276.469 765.465 276.711C764.902 276.953 764.216 277.074 763.405 277.074ZM763.732 275.151C764.579 275.151 765.293 274.984 765.873 274.652C766.46 274.319 766.902 273.889 767.198 273.363C767.501 272.837 767.652 272.283 767.652 271.703V269.743C767.561 269.852 767.361 269.951 767.053 270.042C766.75 270.127 766.4 270.203 766 270.269C765.607 270.33 765.223 270.384 764.848 270.432C764.479 270.475 764.18 270.511 763.95 270.541C763.393 270.614 762.873 270.732 762.389 270.895C761.911 271.052 761.524 271.291 761.228 271.612C760.937 271.926 760.792 272.356 760.792 272.9C760.792 273.644 761.067 274.207 761.618 274.588C762.174 274.963 762.879 275.151 763.732 275.151ZM773.702 276.748V262.811H775.77V264.988H775.952C776.242 264.244 776.711 263.667 777.358 263.255C778.005 262.838 778.783 262.629 779.69 262.629C780.61 262.629 781.375 262.838 781.986 263.255C782.603 263.667 783.084 264.244 783.428 264.988H783.574C783.93 264.268 784.466 263.697 785.18 263.273C785.893 262.844 786.749 262.629 787.747 262.629C788.994 262.629 790.013 263.019 790.805 263.8C791.598 264.574 791.994 265.781 791.994 267.42V276.748H789.852V267.42C789.852 266.392 789.571 265.657 789.009 265.215C788.446 264.773 787.784 264.553 787.022 264.553C786.042 264.553 785.282 264.849 784.744 265.442C784.206 266.029 783.937 266.773 783.937 267.674V276.748H781.759V267.202C781.759 266.41 781.502 265.772 780.988 265.288C780.473 264.798 779.811 264.553 779.001 264.553C778.444 264.553 777.924 264.701 777.44 264.997C776.962 265.294 776.575 265.705 776.278 266.231C775.988 266.752 775.843 267.353 775.843 268.037V276.748H773.702ZM801.752 277.038C800.41 277.038 799.251 276.742 798.277 276.149C797.309 275.55 796.562 274.715 796.036 273.644C795.516 272.568 795.256 271.316 795.256 269.888C795.256 268.46 795.516 267.202 796.036 266.113C796.562 265.018 797.294 264.166 798.232 263.555C799.176 262.938 800.277 262.629 801.535 262.629C802.261 262.629 802.977 262.75 803.685 262.992C804.393 263.234 805.037 263.627 805.618 264.172C806.199 264.71 806.661 265.424 807.006 266.313C807.351 267.202 807.523 268.297 807.523 269.598V270.505H796.78V268.654H805.346C805.346 267.868 805.188 267.166 804.874 266.549C804.565 265.932 804.124 265.445 803.549 265.088C802.98 264.731 802.309 264.553 801.535 264.553C800.682 264.553 799.944 264.764 799.321 265.188C798.704 265.605 798.229 266.15 797.896 266.821C797.564 267.493 797.397 268.212 797.397 268.981V270.215C797.397 271.267 797.579 272.159 797.942 272.891C798.311 273.617 798.822 274.171 799.475 274.552C800.128 274.927 800.887 275.114 801.752 275.114C802.315 275.114 802.823 275.036 803.277 274.878C803.737 274.715 804.133 274.473 804.465 274.153C804.798 273.826 805.055 273.421 805.237 272.937L807.305 273.517C807.088 274.219 806.722 274.836 806.208 275.368C805.693 275.895 805.058 276.306 804.302 276.602C803.546 276.893 802.696 277.038 801.752 277.038ZM816.842 262.811V264.625H809.619V262.811H816.842ZM811.724 259.472H813.866V272.755C813.866 273.36 813.953 273.814 814.129 274.116C814.31 274.413 814.54 274.612 814.818 274.715C815.103 274.812 815.402 274.86 815.717 274.86C815.953 274.86 816.146 274.848 816.297 274.824C816.449 274.794 816.57 274.77 816.66 274.751L817.096 276.675C816.951 276.729 816.748 276.784 816.488 276.838C816.228 276.899 815.898 276.929 815.499 276.929C814.894 276.929 814.301 276.799 813.72 276.539C813.146 276.279 812.668 275.883 812.287 275.35C811.912 274.818 811.724 274.146 811.724 273.336V259.472ZM823.257 274.207L823.112 275.187C823.009 275.876 822.851 276.614 822.64 277.401C822.434 278.187 822.219 278.928 821.996 279.624C821.772 280.32 821.587 280.873 821.442 281.284H819.809C819.887 280.897 819.99 280.386 820.117 279.751C820.244 279.116 820.371 278.405 820.498 277.619C820.631 276.838 820.74 276.04 820.825 275.223L820.934 274.207H823.257ZM840.072 277.038C838.766 277.038 837.641 276.729 836.697 276.112C835.753 275.495 835.027 274.646 834.519 273.563C834.011 272.48 833.757 271.243 833.757 269.852C833.757 268.436 834.017 267.187 834.537 266.104C835.064 265.015 835.796 264.166 836.733 263.555C837.677 262.938 838.778 262.629 840.036 262.629C841.016 262.629 841.899 262.811 842.686 263.174C843.472 263.536 844.116 264.045 844.618 264.698C845.12 265.351 845.432 266.113 845.553 266.984H843.411C843.248 266.349 842.885 265.787 842.323 265.297C841.766 264.801 841.016 264.553 840.072 264.553C839.238 264.553 838.506 264.77 837.877 265.206C837.253 265.635 836.767 266.243 836.416 267.03C836.071 267.81 835.899 268.727 835.899 269.779C835.899 270.856 836.068 271.793 836.407 272.592C836.751 273.39 837.235 274.01 837.858 274.452C838.487 274.894 839.225 275.114 840.072 275.114C840.629 275.114 841.134 275.018 841.588 274.824C842.041 274.63 842.425 274.352 842.74 273.989C843.055 273.626 843.278 273.191 843.411 272.683H845.553C845.432 273.505 845.132 274.246 844.654 274.906C844.183 275.559 843.557 276.079 842.776 276.466C842.002 276.847 841.101 277.038 840.072 277.038ZM854.345 277.038C853.087 277.038 851.983 276.738 851.033 276.14C850.09 275.541 849.352 274.703 848.819 273.626C848.293 272.55 848.03 271.291 848.03 269.852C848.03 268.4 848.293 267.133 848.819 266.05C849.352 264.967 850.09 264.126 851.033 263.527C851.983 262.929 853.087 262.629 854.345 262.629C855.603 262.629 856.704 262.929 857.648 263.527C858.598 264.126 859.336 264.967 859.862 266.05C860.394 267.133 860.66 268.4 860.66 269.852C860.66 271.291 860.394 272.55 859.862 273.626C859.336 274.703 858.598 275.541 857.648 276.14C856.704 276.738 855.603 277.038 854.345 277.038ZM854.345 275.114C855.301 275.114 856.087 274.869 856.704 274.379C857.321 273.889 857.778 273.245 858.074 272.447C858.371 271.648 858.519 270.783 858.519 269.852C858.519 268.92 858.371 268.052 858.074 267.248C857.778 266.443 857.321 265.793 856.704 265.297C856.087 264.801 855.301 264.553 854.345 264.553C853.389 264.553 852.603 264.801 851.986 265.297C851.369 265.793 850.912 266.443 850.616 267.248C850.319 268.052 850.171 268.92 850.171 269.852C850.171 270.783 850.319 271.648 850.616 272.447C850.912 273.245 851.369 273.889 851.986 274.379C852.603 274.869 853.389 275.114 854.345 275.114ZM866.07 268.364V276.748H863.929V262.811H865.998V264.988H866.179C866.506 264.28 867.002 263.712 867.667 263.282C868.333 262.847 869.192 262.629 870.244 262.629C871.188 262.629 872.014 262.823 872.721 263.21C873.429 263.591 873.979 264.172 874.373 264.952C874.766 265.726 874.962 266.706 874.962 267.892V276.748H872.821V268.037C872.821 266.942 872.537 266.089 871.968 265.478C871.4 264.861 870.619 264.553 869.627 264.553C868.944 264.553 868.333 264.701 867.794 264.997C867.262 265.294 866.842 265.726 866.533 266.295C866.225 266.863 866.07 267.553 866.07 268.364ZM888.747 265.932L886.824 266.476C886.703 266.156 886.524 265.844 886.289 265.542C886.059 265.233 885.744 264.979 885.345 264.78C884.946 264.58 884.434 264.48 883.811 264.48C882.959 264.48 882.248 264.677 881.679 265.07C881.117 265.457 880.835 265.95 880.835 266.549C880.835 267.081 881.029 267.502 881.416 267.81C881.803 268.119 882.408 268.376 883.231 268.581L885.299 269.089C886.546 269.392 887.474 269.855 888.085 270.478C888.696 271.095 889.002 271.89 889.002 272.864C889.002 273.663 888.772 274.376 888.312 275.005C887.858 275.635 887.223 276.131 886.406 276.493C885.59 276.856 884.64 277.038 883.557 277.038C882.136 277.038 880.959 276.729 880.028 276.112C879.096 275.495 878.506 274.594 878.258 273.408L880.291 272.9C880.484 273.65 880.85 274.213 881.389 274.588C881.933 274.963 882.644 275.151 883.521 275.151C884.519 275.151 885.312 274.939 885.898 274.515C886.491 274.086 886.788 273.572 886.788 272.973C886.788 272.489 886.618 272.084 886.279 271.757C885.941 271.424 885.42 271.176 884.719 271.013L882.396 270.469C881.12 270.166 880.182 269.697 879.583 269.062C878.99 268.421 878.694 267.62 878.694 266.658C878.694 265.871 878.915 265.176 879.356 264.571C879.804 263.966 880.412 263.491 881.18 263.146C881.954 262.802 882.831 262.629 883.811 262.629C885.191 262.629 886.273 262.932 887.06 263.536C887.852 264.141 888.415 264.94 888.747 265.932ZM898.068 277.038C896.725 277.038 895.567 276.742 894.593 276.149C893.625 275.55 892.878 274.715 892.352 273.644C891.832 272.568 891.572 271.316 891.572 269.888C891.572 268.46 891.832 267.202 892.352 266.113C892.878 265.018 893.61 264.166 894.548 263.555C895.491 262.938 896.592 262.629 897.85 262.629C898.576 262.629 899.293 262.75 900.001 262.992C900.709 263.234 901.353 263.627 901.934 264.172C902.514 264.71 902.977 265.424 903.322 266.313C903.667 267.202 903.839 268.297 903.839 269.598V270.505H893.096V268.654H901.661C901.661 267.868 901.504 267.166 901.19 266.549C900.881 265.932 900.439 265.445 899.865 265.088C899.296 264.731 898.625 264.553 897.85 264.553C896.998 264.553 896.26 264.764 895.637 265.188C895.02 265.605 894.545 266.15 894.212 266.821C893.879 267.493 893.713 268.212 893.713 268.981V270.215C893.713 271.267 893.894 272.159 894.257 272.891C894.626 273.617 895.137 274.171 895.791 274.552C896.444 274.927 897.203 275.114 898.068 275.114C898.631 275.114 899.139 275.036 899.593 274.878C900.052 274.715 900.449 274.473 900.781 274.153C901.114 273.826 901.371 273.421 901.552 272.937L903.621 273.517C903.403 274.219 903.038 274.836 902.523 275.368C902.009 275.895 901.374 276.306 900.618 276.602C899.862 276.893 899.012 277.038 898.068 277.038ZM913.158 262.811V264.625H905.935V262.811H913.158ZM908.04 259.472H910.181V272.755C910.181 273.36 910.269 273.814 910.445 274.116C910.626 274.413 910.856 274.612 911.134 274.715C911.418 274.812 911.718 274.86 912.032 274.86C912.268 274.86 912.462 274.848 912.613 274.824C912.764 274.794 912.885 274.77 912.976 274.751L913.412 276.675C913.266 276.729 913.064 276.784 912.804 276.838C912.544 276.899 912.214 276.929 911.815 276.929C911.21 276.929 910.617 276.799 910.036 276.539C909.462 276.279 908.984 275.883 908.603 275.35C908.228 274.818 908.04 274.146 908.04 273.336V259.472ZM922.072 277.038C920.729 277.038 919.571 276.742 918.597 276.149C917.629 275.55 916.882 274.715 916.356 273.644C915.836 272.568 915.576 271.316 915.576 269.888C915.576 268.46 915.836 267.202 916.356 266.113C916.882 265.018 917.614 264.166 918.552 263.555C919.495 262.938 920.596 262.629 921.855 262.629C922.58 262.629 923.297 262.75 924.005 262.992C924.713 263.234 925.357 263.627 925.938 264.172C926.518 264.71 926.981 265.424 927.326 266.313C927.671 267.202 927.843 268.297 927.843 269.598V270.505H917.1V268.654H925.665C925.665 267.868 925.508 267.166 925.194 266.549C924.885 265.932 924.444 265.445 923.869 265.088C923.3 264.731 922.629 264.553 921.855 264.553C921.002 264.553 920.264 264.764 919.641 265.188C919.024 265.605 918.549 266.15 918.216 266.821C917.883 267.493 917.717 268.212 917.717 268.981V270.215C917.717 271.267 917.898 272.159 918.261 272.891C918.63 273.617 919.142 274.171 919.795 274.552C920.448 274.927 921.207 275.114 922.072 275.114C922.635 275.114 923.143 275.036 923.597 274.878C924.056 274.715 924.453 274.473 924.785 274.153C925.118 273.826 925.375 273.421 925.557 272.937L927.625 273.517C927.408 274.219 927.042 274.836 926.527 275.368C926.013 275.895 925.378 276.306 924.622 276.602C923.866 276.893 923.016 277.038 922.072 277.038ZM937.162 262.811V264.625H929.939V262.811H937.162ZM932.044 259.472H934.186V272.755C934.186 273.36 934.273 273.814 934.449 274.116C934.63 274.413 934.86 274.612 935.138 274.715C935.423 274.812 935.722 274.86 936.037 274.86C936.272 274.86 936.466 274.848 936.617 274.824C936.768 274.794 936.889 274.77 936.98 274.751L937.416 276.675C937.271 276.729 937.068 276.784 936.808 276.838C936.548 276.899 936.218 276.929 935.819 276.929C935.214 276.929 934.621 276.799 934.04 276.539C933.466 276.279 932.988 275.883 932.607 275.35C932.232 274.818 932.044 274.146 932.044 273.336V259.472ZM949.166 271.049V262.811H951.307V276.748H949.166V274.388H949.021C948.694 275.096 948.186 275.698 947.496 276.194C946.807 276.684 945.936 276.929 944.883 276.929C944.012 276.929 943.238 276.738 942.56 276.357C941.883 275.97 941.351 275.39 940.963 274.615C940.576 273.835 940.383 272.852 940.383 271.666V262.811H942.524V271.521C942.524 272.537 942.808 273.348 943.377 273.953C943.952 274.558 944.684 274.86 945.573 274.86C946.105 274.86 946.647 274.724 947.197 274.452C947.754 274.18 948.219 273.762 948.594 273.2C948.975 272.637 949.166 271.92 949.166 271.049ZM955.229 276.748V262.811H957.298V264.916H957.443C957.697 264.226 958.157 263.667 958.822 263.237C959.488 262.808 960.238 262.593 961.073 262.593C961.23 262.593 961.427 262.596 961.663 262.602C961.898 262.608 962.077 262.617 962.198 262.629V264.807C962.125 264.789 961.959 264.761 961.699 264.725C961.445 264.683 961.176 264.662 960.891 264.662C960.214 264.662 959.609 264.804 959.077 265.088C958.55 265.366 958.133 265.753 957.824 266.249C957.522 266.739 957.371 267.299 957.371 267.928V276.748H955.229ZM981.794 265.932L979.871 266.476C979.75 266.156 979.571 265.844 979.336 265.542C979.106 265.233 978.791 264.979 978.392 264.78C977.993 264.58 977.482 264.48 976.858 264.48C976.006 264.48 975.295 264.677 974.726 265.07C974.164 265.457 973.882 265.95 973.882 266.549C973.882 267.081 974.076 267.502 974.463 267.81C974.85 268.119 975.455 268.376 976.278 268.581L978.347 269.089C979.593 269.392 980.521 269.855 981.132 270.478C981.743 271.095 982.049 271.89 982.049 272.864C982.049 273.663 981.819 274.376 981.359 275.005C980.905 275.635 980.27 276.131 979.453 276.493C978.637 276.856 977.687 277.038 976.604 277.038C975.183 277.038 974.006 276.729 973.075 276.112C972.143 275.495 971.553 274.594 971.305 273.408L973.338 272.9C973.531 273.65 973.897 274.213 974.436 274.588C974.98 274.963 975.691 275.151 976.568 275.151C977.566 275.151 978.359 274.939 978.945 274.515C979.538 274.086 979.835 273.572 979.835 272.973C979.835 272.489 979.665 272.084 979.326 271.757C978.988 271.424 978.467 271.176 977.766 271.013L975.443 270.469C974.167 270.166 973.229 269.697 972.63 269.062C972.037 268.421 971.741 267.62 971.741 266.658C971.741 265.871 971.962 265.176 972.403 264.571C972.851 263.966 973.459 263.491 974.227 263.146C975.001 262.802 975.879 262.629 976.858 262.629C978.238 262.629 979.32 262.932 980.107 263.536C980.899 264.141 981.462 264.94 981.794 265.932ZM989.373 277.074C988.49 277.074 987.688 276.908 986.969 276.575C986.249 276.236 985.677 275.749 985.254 275.114C984.83 274.473 984.619 273.699 984.619 272.791C984.619 271.993 984.776 271.346 985.09 270.85C985.405 270.348 985.825 269.954 986.352 269.67C986.878 269.386 987.459 269.174 988.094 269.035C988.735 268.89 989.379 268.775 990.026 268.69C990.873 268.581 991.56 268.5 992.086 268.445C992.618 268.385 993.006 268.285 993.248 268.146C993.496 268.007 993.62 267.765 993.62 267.42V267.347C993.62 266.452 993.375 265.756 992.885 265.26C992.401 264.764 991.666 264.516 990.68 264.516C989.657 264.516 988.856 264.74 988.275 265.188C987.695 265.635 987.286 266.113 987.05 266.621L985.018 265.896C985.381 265.049 985.865 264.389 986.47 263.918C987.081 263.44 987.746 263.107 988.466 262.919C989.192 262.726 989.905 262.629 990.607 262.629C991.055 262.629 991.569 262.684 992.15 262.792C992.736 262.895 993.302 263.11 993.846 263.437C994.397 263.763 994.854 264.256 995.217 264.916C995.579 265.575 995.761 266.458 995.761 267.565V276.748H993.62V274.86H993.511C993.366 275.163 993.124 275.486 992.785 275.831C992.446 276.176 991.995 276.469 991.433 276.711C990.87 276.953 990.184 277.074 989.373 277.074ZM989.7 275.151C990.547 275.151 991.26 274.984 991.841 274.652C992.428 274.319 992.869 273.889 993.166 273.363C993.468 272.837 993.62 272.283 993.62 271.703V269.743C993.529 269.852 993.329 269.951 993.021 270.042C992.718 270.127 992.367 270.203 991.968 270.269C991.575 270.33 991.191 270.384 990.816 270.432C990.447 270.475 990.147 270.511 989.918 270.541C989.361 270.614 988.841 270.732 988.357 270.895C987.879 271.052 987.492 271.291 987.195 271.612C986.905 271.926 986.76 272.356 986.76 272.9C986.76 273.644 987.035 274.207 987.586 274.588C988.142 274.963 988.847 275.151 989.7 275.151ZM1004.93 277.038C1003.77 277.038 1002.75 276.745 1001.86 276.158C1000.97 275.565 1000.27 274.73 999.769 273.653C999.267 272.571 999.016 271.291 999.016 269.815C999.016 268.351 999.267 267.081 999.769 266.004C1000.27 264.928 1000.97 264.096 1001.87 263.509C1002.76 262.922 1003.79 262.629 1004.97 262.629C1005.88 262.629 1006.59 262.78 1007.12 263.083C1007.65 263.379 1008.06 263.718 1008.33 264.099C1008.62 264.474 1008.84 264.783 1009 265.025H1009.18V258.165H1011.32V276.748H1009.25V274.606H1009C1008.84 274.86 1008.62 275.181 1008.33 275.568C1008.04 275.949 1007.62 276.291 1007.08 276.593C1006.54 276.89 1005.83 277.038 1004.93 277.038ZM1005.22 275.114C1006.08 275.114 1006.81 274.891 1007.4 274.443C1007.99 273.989 1008.44 273.363 1008.75 272.565C1009.06 271.76 1009.21 270.832 1009.21 269.779C1009.21 268.739 1009.06 267.828 1008.76 267.048C1008.46 266.262 1008.01 265.651 1007.42 265.215C1006.83 264.773 1006.09 264.553 1005.22 264.553C1004.32 264.553 1003.56 264.786 1002.95 265.251C1002.36 265.711 1001.9 266.337 1001.6 267.13C1001.31 267.916 1001.16 268.799 1001.16 269.779C1001.16 270.771 1001.31 271.672 1001.61 272.483C1001.92 273.288 1002.37 273.929 1002.97 274.407C1003.58 274.878 1004.33 275.114 1005.22 275.114ZM1015.54 276.748V262.811H1017.68V276.748H1015.54ZM1016.63 260.488C1016.21 260.488 1015.85 260.346 1015.55 260.061C1015.25 259.777 1015.1 259.435 1015.1 259.036C1015.1 258.637 1015.25 258.295 1015.55 258.011C1015.85 257.726 1016.21 257.584 1016.63 257.584C1017.05 257.584 1017.4 257.726 1017.7 258.011C1018 258.295 1018.15 258.637 1018.15 259.036C1018.15 259.435 1018 259.777 1017.7 260.061C1017.4 260.346 1017.05 260.488 1016.63 260.488ZM1021.6 281.974V262.811H1023.67V265.025H1023.93C1024.08 264.783 1024.3 264.474 1024.58 264.099C1024.86 263.718 1025.27 263.379 1025.79 263.083C1026.33 262.78 1027.05 262.629 1027.95 262.629C1029.13 262.629 1030.16 262.922 1031.06 263.509C1031.95 264.096 1032.65 264.928 1033.15 266.004C1033.66 267.081 1033.91 268.351 1033.91 269.815C1033.91 271.291 1033.66 272.571 1033.15 273.653C1032.65 274.73 1031.96 275.565 1031.07 276.158C1030.18 276.745 1029.15 277.038 1027.99 277.038C1027.09 277.038 1026.38 276.89 1025.84 276.593C1025.3 276.291 1024.89 275.949 1024.6 275.568C1024.31 275.181 1024.08 274.86 1023.93 274.606H1023.74V281.974H1021.6ZM1023.71 269.779C1023.71 270.832 1023.86 271.76 1024.17 272.565C1024.48 273.363 1024.93 273.989 1025.52 274.443C1026.11 274.891 1026.84 275.114 1027.7 275.114C1028.6 275.114 1029.34 274.878 1029.94 274.407C1030.55 273.929 1031 273.288 1031.3 272.483C1031.61 271.672 1031.76 270.771 1031.76 269.779C1031.76 268.799 1031.61 267.916 1031.31 267.13C1031.01 266.337 1030.56 265.711 1029.96 265.251C1029.36 264.786 1028.61 264.553 1027.7 264.553C1026.83 264.553 1026.1 264.773 1025.5 265.215C1024.91 265.651 1024.46 266.262 1024.16 267.048C1023.86 267.828 1023.71 268.739 1023.71 269.779ZM1047.04 265.932L1045.12 266.476C1045 266.156 1044.82 265.844 1044.59 265.542C1044.36 265.233 1044.04 264.979 1043.64 264.78C1043.24 264.58 1042.73 264.48 1042.11 264.48C1041.26 264.48 1040.54 264.677 1039.98 265.07C1039.41 265.457 1039.13 265.95 1039.13 266.549C1039.13 267.081 1039.33 267.502 1039.71 267.81C1040.1 268.119 1040.71 268.376 1041.53 268.581L1043.6 269.089C1044.84 269.392 1045.77 269.855 1046.38 270.478C1046.99 271.095 1047.3 271.89 1047.3 272.864C1047.3 273.663 1047.07 274.376 1046.61 275.005C1046.16 275.635 1045.52 276.131 1044.7 276.493C1043.89 276.856 1042.94 277.038 1041.85 277.038C1040.43 277.038 1039.26 276.729 1038.32 276.112C1037.39 275.495 1036.8 274.594 1036.56 273.408L1038.59 272.9C1038.78 273.65 1039.15 274.213 1039.69 274.588C1040.23 274.963 1040.94 275.151 1041.82 275.151C1042.82 275.151 1043.61 274.939 1044.2 274.515C1044.79 274.086 1045.08 273.572 1045.08 272.973C1045.08 272.489 1044.92 272.084 1044.58 271.757C1044.24 271.424 1043.72 271.176 1043.02 271.013L1040.69 270.469C1039.42 270.166 1038.48 269.697 1037.88 269.062C1037.29 268.421 1036.99 267.62 1036.99 266.658C1036.99 265.871 1037.21 265.176 1037.65 264.571C1038.1 263.966 1038.71 263.491 1039.48 263.146C1040.25 262.802 1041.13 262.629 1042.11 262.629C1043.49 262.629 1044.57 262.932 1045.36 263.536C1046.15 264.141 1046.71 264.94 1047.04 265.932ZM1056.18 277.038C1054.88 277.038 1053.75 276.729 1052.81 276.112C1051.86 275.495 1051.14 274.646 1050.63 273.563C1050.12 272.48 1049.87 271.243 1049.87 269.852C1049.87 268.436 1050.13 267.187 1050.65 266.104C1051.18 265.015 1051.91 264.166 1052.84 263.555C1053.79 262.938 1054.89 262.629 1056.15 262.629C1057.13 262.629 1058.01 262.811 1058.8 263.174C1059.58 263.536 1060.23 264.045 1060.73 264.698C1061.23 265.351 1061.54 266.113 1061.66 266.984H1059.52C1059.36 266.349 1059 265.787 1058.43 265.297C1057.88 264.801 1057.13 264.553 1056.18 264.553C1055.35 264.553 1054.62 264.77 1053.99 265.206C1053.37 265.635 1052.88 266.243 1052.53 267.03C1052.18 267.81 1052.01 268.727 1052.01 269.779C1052.01 270.856 1052.18 271.793 1052.52 272.592C1052.86 273.39 1053.35 274.01 1053.97 274.452C1054.6 274.894 1055.34 275.114 1056.18 275.114C1056.74 275.114 1057.25 275.018 1057.7 274.824C1058.15 274.63 1058.54 274.352 1058.85 273.989C1059.17 273.626 1059.39 273.191 1059.52 272.683H1061.66C1061.54 273.505 1061.24 274.246 1060.77 274.906C1060.29 275.559 1059.67 276.079 1058.89 276.466C1058.11 276.847 1057.21 277.038 1056.18 277.038ZM1064.79 276.748V262.811H1066.94V276.748H1064.79ZM1065.88 260.488C1065.47 260.488 1065.11 260.346 1064.8 260.061C1064.51 259.777 1064.36 259.435 1064.36 259.036C1064.36 258.637 1064.51 258.295 1064.8 258.011C1065.11 257.726 1065.47 257.584 1065.88 257.584C1066.3 257.584 1066.66 257.726 1066.95 258.011C1067.26 258.295 1067.41 258.637 1067.41 259.036C1067.41 259.435 1067.26 259.777 1066.95 260.061C1066.66 260.346 1066.3 260.488 1065.88 260.488ZM1073 268.364V276.748H1070.86V262.811H1072.93V264.988H1073.11C1073.44 264.28 1073.93 263.712 1074.6 263.282C1075.26 262.847 1076.12 262.629 1077.17 262.629C1078.12 262.629 1078.94 262.823 1079.65 263.21C1080.36 263.591 1080.91 264.172 1081.3 264.952C1081.7 265.726 1081.89 266.706 1081.89 267.892V276.748H1079.75V268.037C1079.75 266.942 1079.47 266.089 1078.9 265.478C1078.33 264.861 1077.55 264.553 1076.56 264.553C1075.87 264.553 1075.26 264.701 1074.72 264.997C1074.19 265.294 1073.77 265.726 1073.46 266.295C1073.15 266.863 1073 267.553 1073 268.364ZM1091.43 282.264C1090.4 282.264 1089.51 282.131 1088.76 281.865C1088.02 281.605 1087.4 281.26 1086.9 280.831C1086.41 280.407 1086.02 279.954 1085.73 279.47L1087.44 278.272C1087.63 278.526 1087.88 278.816 1088.17 279.143C1088.47 279.476 1088.87 279.763 1089.39 280.005C1089.91 280.253 1090.59 280.377 1091.43 280.377C1092.56 280.377 1093.48 280.105 1094.22 279.56C1094.95 279.016 1095.31 278.163 1095.31 277.002V274.171H1095.13C1094.97 274.425 1094.75 274.739 1094.46 275.114C1094.18 275.483 1093.77 275.813 1093.23 276.103C1092.69 276.388 1091.97 276.53 1091.07 276.53C1089.94 276.53 1088.93 276.264 1088.04 275.731C1087.15 275.199 1086.44 274.425 1085.92 273.408C1085.41 272.392 1085.15 271.158 1085.15 269.706C1085.15 268.279 1085.4 267.036 1085.9 265.977C1086.41 264.913 1087.11 264.09 1088 263.509C1088.9 262.922 1089.93 262.629 1091.1 262.629C1092.01 262.629 1092.73 262.78 1093.26 263.083C1093.8 263.379 1094.21 263.718 1094.5 264.099C1094.79 264.474 1095.01 264.783 1095.17 265.025H1095.39V262.811H1097.46V277.147C1097.46 278.345 1097.18 279.318 1096.64 280.068C1096.1 280.825 1095.37 281.378 1094.46 281.729C1093.55 282.086 1092.54 282.264 1091.43 282.264ZM1091.36 274.606C1092.22 274.606 1092.94 274.41 1093.54 274.016C1094.13 273.623 1094.58 273.058 1094.89 272.32C1095.2 271.582 1095.35 270.699 1095.35 269.67C1095.35 268.666 1095.2 267.78 1094.9 267.012C1094.59 266.243 1094.15 265.642 1093.55 265.206C1092.96 264.77 1092.23 264.553 1091.36 264.553C1090.45 264.553 1089.69 264.783 1089.09 265.242C1088.49 265.702 1088.04 266.319 1087.74 267.093C1087.44 267.868 1087.29 268.727 1087.29 269.67C1087.29 270.638 1087.44 271.494 1087.75 272.238C1088.05 272.976 1088.51 273.557 1089.11 273.98C1089.71 274.398 1090.46 274.606 1091.36 274.606ZM1114.4 277.038C1113.06 277.038 1111.9 276.742 1110.93 276.149C1109.96 275.55 1109.21 274.715 1108.69 273.644C1108.17 272.568 1107.91 271.316 1107.91 269.888C1107.91 268.46 1108.17 267.202 1108.69 266.113C1109.21 265.018 1109.95 264.166 1110.88 263.555C1111.83 262.938 1112.93 262.629 1114.19 262.629C1114.91 262.629 1115.63 262.75 1116.34 262.992C1117.04 263.234 1117.69 263.627 1118.27 264.172C1118.85 264.71 1119.31 265.424 1119.66 266.313C1120 267.202 1120.18 268.297 1120.18 269.598V270.505H1109.43V268.654H1118C1118 267.868 1117.84 267.166 1117.53 266.549C1117.22 265.932 1116.78 265.445 1116.2 265.088C1115.63 264.731 1114.96 264.553 1114.19 264.553C1113.33 264.553 1112.6 264.764 1111.97 265.188C1111.36 265.605 1110.88 266.15 1110.55 266.821C1110.22 267.493 1110.05 268.212 1110.05 268.981V270.215C1110.05 271.267 1110.23 272.159 1110.59 272.891C1110.96 273.617 1111.47 274.171 1112.13 274.552C1112.78 274.927 1113.54 275.114 1114.4 275.114C1114.97 275.114 1115.48 275.036 1115.93 274.878C1116.39 274.715 1116.78 274.473 1117.12 274.153C1117.45 273.826 1117.71 273.421 1117.89 272.937L1119.96 273.517C1119.74 274.219 1119.37 274.836 1118.86 275.368C1118.35 275.895 1117.71 276.306 1116.95 276.602C1116.2 276.893 1115.35 277.038 1114.4 277.038ZM1125.57 258.165V276.748H1123.43V258.165H1125.57ZM1129.5 276.748V262.811H1131.64V276.748H1129.5ZM1130.58 260.488C1130.17 260.488 1129.81 260.346 1129.51 260.061C1129.21 259.777 1129.06 259.435 1129.06 259.036C1129.06 258.637 1129.21 258.295 1129.51 258.011C1129.81 257.726 1130.17 257.584 1130.58 257.584C1131 257.584 1131.36 257.726 1131.66 258.011C1131.96 258.295 1132.11 258.637 1132.11 259.036C1132.11 259.435 1131.96 259.777 1131.66 260.061C1131.36 260.346 1131 260.488 1130.58 260.488ZM1141.62 262.811V264.625H1134.4V262.811H1141.62ZM1136.5 259.472H1138.64V272.755C1138.64 273.36 1138.73 273.814 1138.91 274.116C1139.09 274.413 1139.32 274.612 1139.6 274.715C1139.88 274.812 1140.18 274.86 1140.5 274.86C1140.73 274.86 1140.92 274.848 1141.08 274.824C1141.23 274.794 1141.35 274.77 1141.44 274.751L1141.87 276.675C1141.73 276.729 1141.53 276.784 1141.27 276.838C1141.01 276.899 1140.68 276.929 1140.28 276.929C1139.67 276.929 1139.08 276.799 1138.5 276.539C1137.92 276.279 1137.45 275.883 1137.07 275.35C1136.69 274.818 1136.5 274.146 1136.5 273.336V259.472ZM1144.84 276.748V262.811H1146.91V264.916H1147.06C1147.31 264.226 1147.77 263.667 1148.43 263.237C1149.1 262.808 1149.85 262.593 1150.69 262.593C1150.84 262.593 1151.04 262.596 1151.27 262.602C1151.51 262.608 1151.69 262.617 1151.81 262.629V264.807C1151.74 264.789 1151.57 264.761 1151.31 264.725C1151.06 264.683 1150.79 264.662 1150.5 264.662C1149.83 264.662 1149.22 264.804 1148.69 265.088C1148.16 265.366 1147.75 265.753 1147.44 266.249C1147.13 266.739 1146.98 267.299 1146.98 267.928V276.748H1144.84ZM1155.95 274.207L1155.8 275.187C1155.7 275.876 1155.54 276.614 1155.33 277.401C1155.12 278.187 1154.91 278.928 1154.68 279.624C1154.46 280.32 1154.28 280.873 1154.13 281.284H1152.5C1152.58 280.897 1152.68 280.386 1152.81 279.751C1152.93 279.116 1153.06 278.405 1153.19 277.619C1153.32 276.838 1153.43 276.04 1153.51 275.223L1153.62 274.207H1155.95ZM1176.97 265.932L1175.05 266.476C1174.93 266.156 1174.75 265.844 1174.51 265.542C1174.28 265.233 1173.97 264.979 1173.57 264.78C1173.17 264.58 1172.66 264.48 1172.04 264.48C1171.18 264.48 1170.47 264.677 1169.9 265.07C1169.34 265.457 1169.06 265.95 1169.06 266.549C1169.06 267.081 1169.25 267.502 1169.64 267.81C1170.03 268.119 1170.63 268.376 1171.45 268.581L1173.52 269.089C1174.77 269.392 1175.7 269.855 1176.31 270.478C1176.92 271.095 1177.23 271.89 1177.23 272.864C1177.23 273.663 1177 274.376 1176.54 275.005C1176.08 275.635 1175.45 276.131 1174.63 276.493C1173.81 276.856 1172.86 277.038 1171.78 277.038C1170.36 277.038 1169.18 276.729 1168.25 276.112C1167.32 275.495 1166.73 274.594 1166.48 273.408L1168.51 272.9C1168.71 273.65 1169.07 274.213 1169.61 274.588C1170.16 274.963 1170.87 275.151 1171.74 275.151C1172.74 275.151 1173.54 274.939 1174.12 274.515C1174.71 274.086 1175.01 273.572 1175.01 272.973C1175.01 272.489 1174.84 272.084 1174.5 271.757C1174.16 271.424 1173.64 271.176 1172.94 271.013L1170.62 270.469C1169.34 270.166 1168.41 269.697 1167.81 269.062C1167.21 268.421 1166.92 267.62 1166.92 266.658C1166.92 265.871 1167.14 265.176 1167.58 264.571C1168.03 263.966 1168.64 263.491 1169.4 263.146C1170.18 262.802 1171.06 262.629 1172.04 262.629C1173.41 262.629 1174.5 262.932 1175.28 263.536C1176.08 264.141 1176.64 264.94 1176.97 265.932ZM1186.29 277.038C1184.95 277.038 1183.79 276.742 1182.82 276.149C1181.85 275.55 1181.1 274.715 1180.58 273.644C1180.06 272.568 1179.8 271.316 1179.8 269.888C1179.8 268.46 1180.06 267.202 1180.58 266.113C1181.1 265.018 1181.83 264.166 1182.77 263.555C1183.72 262.938 1184.82 262.629 1186.07 262.629C1186.8 262.629 1187.52 262.75 1188.22 262.992C1188.93 263.234 1189.58 263.627 1190.16 264.172C1190.74 264.71 1191.2 265.424 1191.55 266.313C1191.89 267.202 1192.06 268.297 1192.06 269.598V270.505H1181.32V268.654H1189.89C1189.89 267.868 1189.73 267.166 1189.41 266.549C1189.1 265.932 1188.66 265.445 1188.09 265.088C1187.52 264.731 1186.85 264.553 1186.07 264.553C1185.22 264.553 1184.48 264.764 1183.86 265.188C1183.24 265.605 1182.77 266.15 1182.44 266.821C1182.1 267.493 1181.94 268.212 1181.94 268.981V270.215C1181.94 271.267 1182.12 272.159 1182.48 272.891C1182.85 273.617 1183.36 274.171 1184.01 274.552C1184.67 274.927 1185.43 275.114 1186.29 275.114C1186.85 275.114 1187.36 275.036 1187.82 274.878C1188.28 274.715 1188.67 274.473 1189 274.153C1189.34 273.826 1189.59 273.421 1189.78 272.937L1191.84 273.517C1191.63 274.219 1191.26 274.836 1190.75 275.368C1190.23 275.895 1189.6 276.306 1188.84 276.602C1188.09 276.893 1187.24 277.038 1186.29 277.038ZM1200.58 277.038C1199.42 277.038 1198.4 276.745 1197.51 276.158C1196.62 275.565 1195.92 274.73 1195.42 273.653C1194.92 272.571 1194.67 271.291 1194.67 269.815C1194.67 268.351 1194.92 267.081 1195.42 266.004C1195.92 264.928 1196.62 264.096 1197.52 263.509C1198.41 262.922 1199.45 262.629 1200.62 262.629C1201.53 262.629 1202.24 262.78 1202.77 263.083C1203.3 263.379 1203.71 263.718 1203.99 264.099C1204.27 264.474 1204.49 264.783 1204.65 265.025H1204.83V258.165H1206.97V276.748H1204.9V274.606H1204.65C1204.49 274.86 1204.27 275.181 1203.98 275.568C1203.69 275.949 1203.27 276.291 1202.73 276.593C1202.19 276.89 1201.48 277.038 1200.58 277.038ZM1200.87 275.114C1201.73 275.114 1202.46 274.891 1203.05 274.443C1203.64 273.989 1204.09 273.363 1204.4 272.565C1204.71 271.76 1204.87 270.832 1204.87 269.779C1204.87 268.739 1204.71 267.828 1204.41 267.048C1204.11 266.262 1203.66 265.651 1203.07 265.215C1202.48 264.773 1201.74 264.553 1200.87 264.553C1199.97 264.553 1199.21 264.786 1198.6 265.251C1198.01 265.711 1197.56 266.337 1197.25 267.13C1196.96 267.916 1196.81 268.799 1196.81 269.779C1196.81 270.771 1196.96 271.672 1197.26 272.483C1197.57 273.288 1198.02 273.929 1198.62 274.407C1199.23 274.878 1199.98 275.114 1200.87 275.114ZM497.378 308.038C496.216 308.038 495.191 307.745 494.302 307.158C493.413 306.565 492.717 305.73 492.215 304.653C491.713 303.571 491.462 302.291 491.462 300.815C491.462 299.351 491.713 298.081 492.215 297.004C492.717 295.928 493.416 295.096 494.311 294.509C495.206 293.922 496.241 293.629 497.414 293.629C498.321 293.629 499.038 293.78 499.565 294.083C500.097 294.379 500.502 294.718 500.78 295.099C501.065 295.474 501.286 295.783 501.443 296.025H501.624V289.165H503.766V307.748H501.697V305.606H501.443C501.286 305.86 501.062 306.181 500.771 306.568C500.481 306.949 500.067 307.291 499.528 307.593C498.99 307.89 498.273 308.038 497.378 308.038ZM497.668 306.114C498.527 306.114 499.253 305.891 499.846 305.443C500.439 304.989 500.889 304.363 501.198 303.565C501.506 302.76 501.661 301.832 501.661 300.779C501.661 299.739 501.509 298.828 501.207 298.048C500.904 297.262 500.457 296.651 499.864 296.215C499.271 295.773 498.539 295.553 497.668 295.553C496.761 295.553 496.005 295.786 495.4 296.251C494.801 296.711 494.35 297.337 494.048 298.13C493.751 298.916 493.603 299.799 493.603 300.779C493.603 301.771 493.754 302.672 494.057 303.483C494.365 304.288 494.819 304.929 495.418 305.407C496.023 305.878 496.773 306.114 497.668 306.114ZM507.985 307.748V293.811H510.126V307.748H507.985ZM509.074 291.488C508.656 291.488 508.296 291.346 507.994 291.061C507.697 290.777 507.549 290.435 507.549 290.036C507.549 289.637 507.697 289.295 507.994 289.011C508.296 288.726 508.656 288.584 509.074 288.584C509.491 288.584 509.848 288.726 510.144 289.011C510.447 289.295 510.598 289.637 510.598 290.036C510.598 290.435 510.447 290.777 510.144 291.061C509.848 291.346 509.491 291.488 509.074 291.488ZM518.149 308.074C517.266 308.074 516.465 307.908 515.745 307.575C515.025 307.236 514.453 306.749 514.03 306.114C513.607 305.473 513.395 304.699 513.395 303.791C513.395 302.993 513.552 302.346 513.867 301.85C514.181 301.348 514.602 300.954 515.128 300.67C515.654 300.386 516.235 300.174 516.87 300.035C517.511 299.89 518.156 299.775 518.803 299.69C519.65 299.581 520.336 299.5 520.862 299.445C521.395 299.385 521.782 299.285 522.024 299.146C522.272 299.007 522.396 298.765 522.396 298.42V298.347C522.396 297.452 522.151 296.756 521.661 296.26C521.177 295.764 520.442 295.516 519.456 295.516C518.434 295.516 517.632 295.74 517.052 296.188C516.471 296.635 516.063 297.113 515.827 297.621L513.794 296.896C514.157 296.049 514.641 295.389 515.246 294.918C515.857 294.44 516.522 294.107 517.242 293.919C517.968 293.726 518.682 293.629 519.383 293.629C519.831 293.629 520.345 293.684 520.926 293.792C521.513 293.895 522.078 294.11 522.623 294.437C523.173 294.763 523.63 295.256 523.993 295.916C524.356 296.575 524.537 297.458 524.537 298.565V307.748H522.396V305.86H522.287C522.142 306.163 521.9 306.486 521.561 306.831C521.222 307.176 520.772 307.469 520.209 307.711C519.647 307.953 518.96 308.074 518.149 308.074ZM518.476 306.151C519.323 306.151 520.037 305.984 520.617 305.652C521.204 305.319 521.646 304.889 521.942 304.363C522.245 303.837 522.396 303.283 522.396 302.703V300.743C522.305 300.852 522.106 300.951 521.797 301.042C521.495 301.127 521.144 301.203 520.744 301.269C520.351 301.33 519.967 301.384 519.592 301.432C519.223 301.475 518.924 301.511 518.694 301.541C518.137 301.614 517.617 301.732 517.133 301.895C516.655 302.052 516.268 302.291 515.972 302.612C515.681 302.926 515.536 303.356 515.536 303.9C515.536 304.644 515.812 305.207 516.362 305.588C516.918 305.963 517.623 306.151 518.476 306.151ZM528.446 307.748V293.811H530.514V295.988H530.696C530.986 295.244 531.455 294.667 532.102 294.255C532.75 293.838 533.527 293.629 534.434 293.629C535.354 293.629 536.119 293.838 536.73 294.255C537.347 294.667 537.828 295.244 538.173 295.988H538.318C538.675 295.268 539.21 294.697 539.924 294.273C540.638 293.844 541.493 293.629 542.492 293.629C543.738 293.629 544.757 294.019 545.549 294.8C546.342 295.574 546.738 296.781 546.738 298.42V307.748H544.597V298.42C544.597 297.392 544.315 296.657 543.753 296.215C543.19 295.773 542.528 295.553 541.766 295.553C540.786 295.553 540.027 295.849 539.488 296.442C538.95 297.029 538.681 297.773 538.681 298.674V307.748H536.503V298.202C536.503 297.41 536.246 296.772 535.732 296.288C535.218 295.798 534.555 295.553 533.745 295.553C533.188 295.553 532.668 295.701 532.184 295.997C531.706 296.294 531.319 296.705 531.023 297.231C530.732 297.752 530.587 298.353 530.587 299.037V307.748H528.446ZM559.981 299.364V307.748H557.839V293.811H559.908V295.988H560.09C560.416 295.28 560.912 294.712 561.578 294.282C562.243 293.847 563.102 293.629 564.155 293.629C565.098 293.629 565.924 293.823 566.632 294.21C567.339 294.591 567.89 295.172 568.283 295.952C568.676 296.726 568.873 297.706 568.873 298.892V307.748H566.732V299.037C566.732 297.942 566.447 297.089 565.879 296.478C565.31 295.861 564.53 295.553 563.538 295.553C562.854 295.553 562.243 295.701 561.705 295.997C561.172 296.294 560.752 296.726 560.444 297.295C560.135 297.863 559.981 298.553 559.981 299.364ZM578.448 308.038C577.19 308.038 576.086 307.738 575.136 307.14C574.192 306.541 573.454 305.703 572.922 304.626C572.396 303.55 572.133 302.291 572.133 300.852C572.133 299.4 572.396 298.133 572.922 297.05C573.454 295.967 574.192 295.126 575.136 294.527C576.086 293.929 577.19 293.629 578.448 293.629C579.706 293.629 580.807 293.929 581.751 294.527C582.7 295.126 583.438 295.967 583.964 297.05C584.497 298.133 584.763 299.4 584.763 300.852C584.763 302.291 584.497 303.55 583.964 304.626C583.438 305.703 582.7 306.541 581.751 307.14C580.807 307.738 579.706 308.038 578.448 308.038ZM578.448 306.114C579.404 306.114 580.19 305.869 580.807 305.379C581.424 304.889 581.881 304.245 582.177 303.447C582.473 302.648 582.622 301.783 582.622 300.852C582.622 299.92 582.473 299.052 582.177 298.248C581.881 297.443 581.424 296.793 580.807 296.297C580.19 295.801 579.404 295.553 578.448 295.553C577.492 295.553 576.706 295.801 576.089 296.297C575.472 296.793 575.015 297.443 574.719 298.248C574.422 299.052 574.274 299.92 574.274 300.852C574.274 301.783 574.422 302.648 574.719 303.447C575.015 304.245 575.472 304.889 576.089 305.379C576.706 305.869 577.492 306.114 578.448 306.114ZM590.173 299.364V307.748H588.032V293.811H590.1V295.988H590.282C590.609 295.28 591.105 294.712 591.77 294.282C592.435 293.847 593.294 293.629 594.347 293.629C595.291 293.629 596.116 293.823 596.824 294.21C597.532 294.591 598.082 295.172 598.475 295.952C598.869 296.726 599.065 297.706 599.065 298.892V307.748H596.924V299.037C596.924 297.942 596.639 297.089 596.071 296.478C595.502 295.861 594.722 295.553 593.73 295.553C593.046 295.553 592.435 295.701 591.897 295.997C591.365 296.294 590.944 296.726 590.636 297.295C590.327 297.863 590.173 298.553 590.173 299.364ZM611.761 302.049V293.811H613.903V307.748H611.761V305.388H611.616C611.289 306.096 610.781 306.698 610.092 307.194C609.402 307.684 608.531 307.929 607.479 307.929C606.608 307.929 605.833 307.738 605.156 307.357C604.478 306.97 603.946 306.39 603.559 305.615C603.172 304.835 602.978 303.852 602.978 302.666V293.811H605.119V302.521C605.119 303.537 605.404 304.348 605.972 304.953C606.547 305.558 607.279 305.86 608.168 305.86C608.701 305.86 609.242 305.724 609.792 305.452C610.349 305.18 610.815 304.762 611.19 304.2C611.571 303.637 611.761 302.92 611.761 302.049ZM617.825 307.748V293.811H619.893V295.988H620.075C620.365 295.244 620.834 294.667 621.481 294.255C622.129 293.838 622.906 293.629 623.813 293.629C624.733 293.629 625.498 293.838 626.109 294.255C626.726 294.667 627.207 295.244 627.552 295.988H627.697C628.054 295.268 628.589 294.697 629.303 294.273C630.017 293.844 630.872 293.629 631.871 293.629C633.117 293.629 634.136 294.019 634.928 294.8C635.721 295.574 636.117 296.781 636.117 298.42V307.748H633.976V298.42C633.976 297.392 633.694 296.657 633.132 296.215C632.569 295.773 631.907 295.553 631.145 295.553C630.165 295.553 629.406 295.849 628.867 296.442C628.329 297.029 628.06 297.773 628.06 298.674V307.748H625.882V298.202C625.882 297.41 625.625 296.772 625.111 296.288C624.597 295.798 623.934 295.553 623.124 295.553C622.567 295.553 622.047 295.701 621.563 295.997C621.085 296.294 620.698 296.705 620.402 297.231C620.111 297.752 619.966 298.353 619.966 299.037V307.748H617.825ZM640.912 312.974C640.549 312.974 640.226 312.944 639.942 312.883C639.657 312.829 639.461 312.774 639.352 312.72L639.896 310.833C640.416 310.966 640.876 311.014 641.275 310.978C641.675 310.941 642.028 310.763 642.337 310.442C642.651 310.128 642.939 309.617 643.199 308.909L643.598 307.82L638.444 293.811H640.767L644.614 304.917H644.76L648.607 293.811H650.93L645.014 309.78C644.747 310.5 644.418 311.096 644.025 311.568C643.631 312.045 643.175 312.399 642.654 312.629C642.14 312.859 641.56 312.974 640.912 312.974Z" fill="#71717A"/>
<path d="M491.988 413.446V394.864H504.074V397.686H495.354V402.73H503.448V405.552H495.354V410.624H504.147V413.446H491.988ZM507.363 413.446V399.509H510.503V401.878H510.666C510.956 401.079 511.437 400.456 512.109 400.008C512.78 399.555 513.582 399.328 514.513 399.328C515.457 399.328 516.252 399.558 516.9 400.017C517.553 400.471 518.013 401.091 518.279 401.878H518.424C518.732 401.103 519.253 400.486 519.985 400.027C520.723 399.561 521.597 399.328 522.607 399.328C523.889 399.328 524.936 399.733 525.746 400.544C526.557 401.354 526.962 402.537 526.962 404.091V413.446H523.668V404.6C523.668 403.735 523.439 403.102 522.979 402.703C522.519 402.298 521.957 402.095 521.291 402.095C520.499 402.095 519.879 402.343 519.431 402.839C518.99 403.329 518.769 403.967 518.769 404.754V413.446H515.548V404.463C515.548 403.744 515.33 403.169 514.894 402.739C514.465 402.31 513.902 402.095 513.207 402.095C512.735 402.095 512.305 402.216 511.918 402.458C511.531 402.694 511.223 403.03 510.993 403.465C510.763 403.895 510.648 404.397 510.648 404.972V413.446H507.363ZM534.305 413.728C533.422 413.728 532.626 413.57 531.919 413.256C531.217 412.935 530.66 412.463 530.249 411.84C529.844 411.217 529.641 410.449 529.641 409.536C529.641 408.749 529.786 408.099 530.077 407.585C530.367 407.071 530.763 406.659 531.265 406.351C531.767 406.042 532.333 405.809 532.962 405.652C533.597 405.489 534.254 405.371 534.931 405.298C535.748 405.214 536.41 405.138 536.918 405.071C537.426 404.999 537.795 404.89 538.025 404.745C538.261 404.594 538.379 404.361 538.379 404.046V403.992C538.379 403.308 538.176 402.779 537.771 402.404C537.366 402.029 536.782 401.841 536.02 401.841C535.215 401.841 534.577 402.017 534.105 402.367C533.64 402.718 533.325 403.133 533.162 403.611L530.095 403.175C530.337 402.328 530.736 401.62 531.292 401.052C531.849 400.477 532.53 400.048 533.334 399.763C534.139 399.473 535.028 399.328 536.002 399.328C536.673 399.328 537.342 399.406 538.007 399.564C538.672 399.721 539.28 399.981 539.831 400.344C540.381 400.701 540.823 401.188 541.155 401.805C541.494 402.422 541.664 403.193 541.664 404.119V413.446H538.506V411.532H538.397C538.197 411.919 537.916 412.282 537.553 412.621C537.196 412.953 536.746 413.222 536.201 413.428C535.663 413.628 535.031 413.728 534.305 413.728ZM535.158 411.314C535.817 411.314 536.389 411.184 536.873 410.924C537.357 410.658 537.729 410.307 537.989 409.871C538.255 409.436 538.388 408.961 538.388 408.447V406.804C538.285 406.889 538.11 406.968 537.862 407.04C537.62 407.113 537.348 407.176 537.045 407.231C536.743 407.285 536.443 407.334 536.147 407.376C535.85 407.418 535.593 407.455 535.376 407.485C534.886 407.552 534.447 407.66 534.06 407.812C533.673 407.963 533.367 408.175 533.144 408.447C532.92 408.713 532.808 409.058 532.808 409.481C532.808 410.086 533.029 410.543 533.47 410.851C533.912 411.16 534.474 411.314 535.158 411.314ZM544.966 413.446V399.509H548.251V413.446H544.966ZM546.618 397.531C546.098 397.531 545.65 397.359 545.275 397.014C544.9 396.663 544.712 396.243 544.712 395.753C544.712 395.257 544.9 394.836 545.275 394.492C545.65 394.141 546.098 393.965 546.618 393.965C547.144 393.965 547.592 394.141 547.961 394.492C548.336 394.836 548.523 395.257 548.523 395.753C548.523 396.243 548.336 396.663 547.961 397.014C547.592 397.359 547.144 397.531 546.618 397.531ZM554.913 394.864V413.446H551.629V394.864H554.913Z" fill="#18181B"/>
<path d="M491.988 616.578V597.995H498.957C500.384 597.995 501.582 598.261 502.55 598.793C503.524 599.326 504.259 600.058 504.755 600.989C505.257 601.915 505.508 602.967 505.508 604.147C505.508 605.339 505.257 606.397 504.755 607.323C504.253 608.248 503.512 608.977 502.532 609.509C501.552 610.036 500.345 610.299 498.911 610.299H494.293V607.531H498.458C499.292 607.531 499.976 607.386 500.508 607.096C501.041 606.805 501.434 606.406 501.688 605.898C501.948 605.39 502.078 604.806 502.078 604.147C502.078 603.488 501.948 602.907 501.688 602.405C501.434 601.903 501.037 601.513 500.499 601.234C499.967 600.95 499.28 600.808 498.439 600.808H495.354V616.578H491.988ZM512.047 616.859C511.164 616.859 510.369 616.702 509.661 616.387C508.959 616.066 508.403 615.595 507.992 614.972C507.586 614.349 507.384 613.58 507.384 612.667C507.384 611.881 507.529 611.23 507.819 610.716C508.11 610.202 508.506 609.791 509.008 609.482C509.51 609.174 510.076 608.941 510.705 608.783C511.34 608.62 511.996 608.502 512.674 608.43C513.49 608.345 514.153 608.269 514.661 608.203C515.169 608.13 515.538 608.021 515.768 607.876C516.004 607.725 516.122 607.492 516.122 607.177V607.123C516.122 606.439 515.919 605.91 515.514 605.535C515.108 605.16 514.525 604.973 513.762 604.973C512.958 604.973 512.32 605.148 511.848 605.499C511.382 605.85 511.068 606.264 510.904 606.742L507.837 606.306C508.079 605.46 508.479 604.752 509.035 604.183C509.592 603.609 510.272 603.179 511.077 602.895C511.881 602.604 512.77 602.459 513.744 602.459C514.416 602.459 515.084 602.538 515.75 602.695C516.415 602.852 517.023 603.112 517.573 603.475C518.124 603.832 518.565 604.319 518.898 604.936C519.237 605.553 519.406 606.325 519.406 607.25V616.578H516.249V614.663H516.14C515.94 615.05 515.659 615.413 515.296 615.752C514.939 616.085 514.488 616.354 513.944 616.559C513.405 616.759 512.773 616.859 512.047 616.859ZM512.9 614.445C513.56 614.445 514.131 614.315 514.615 614.055C515.099 613.789 515.471 613.438 515.731 613.003C515.998 612.567 516.131 612.092 516.131 611.578V609.936C516.028 610.02 515.852 610.099 515.604 610.172C515.362 610.244 515.09 610.308 514.788 610.362C514.485 610.417 514.186 610.465 513.889 610.507C513.593 610.55 513.336 610.586 513.118 610.616C512.628 610.683 512.19 610.792 511.803 610.943C511.415 611.094 511.11 611.306 510.886 611.578C510.662 611.844 510.55 612.189 510.55 612.612C510.55 613.217 510.771 613.674 511.213 613.983C511.654 614.291 512.217 614.445 512.9 614.445ZM533.724 606.325L530.73 606.651C530.645 606.349 530.497 606.064 530.285 605.798C530.08 605.532 529.801 605.317 529.451 605.154C529.1 604.991 528.67 604.909 528.162 604.909C527.479 604.909 526.904 605.057 526.438 605.354C525.978 605.65 525.752 606.034 525.758 606.506C525.752 606.911 525.9 607.241 526.202 607.495C526.511 607.749 527.019 607.958 527.727 608.121L530.104 608.629C531.423 608.914 532.402 609.364 533.044 609.981C533.691 610.598 534.018 611.406 534.024 612.404C534.018 613.281 533.761 614.055 533.252 614.727C532.75 615.392 532.052 615.912 531.156 616.287C530.261 616.662 529.233 616.85 528.071 616.85C526.366 616.85 524.992 616.493 523.952 615.779C522.912 615.059 522.292 614.058 522.092 612.776L525.295 612.467C525.44 613.096 525.749 613.571 526.22 613.892C526.692 614.212 527.306 614.373 528.062 614.373C528.843 614.373 529.469 614.212 529.941 613.892C530.418 613.571 530.657 613.175 530.657 612.703C530.657 612.304 530.503 611.974 530.195 611.714C529.892 611.454 529.42 611.254 528.779 611.115L526.402 610.616C525.065 610.338 524.076 609.869 523.435 609.21C522.794 608.545 522.476 607.704 522.482 606.687C522.476 605.828 522.709 605.084 523.181 604.455C523.659 603.82 524.321 603.33 525.168 602.985C526.021 602.635 527.004 602.459 528.117 602.459C529.75 602.459 531.035 602.807 531.973 603.503C532.917 604.198 533.5 605.139 533.724 606.325ZM547.747 606.325L544.753 606.651C544.668 606.349 544.52 606.064 544.309 605.798C544.103 605.532 543.825 605.317 543.474 605.154C543.123 604.991 542.693 604.909 542.185 604.909C541.502 604.909 540.927 605.057 540.461 605.354C540.002 605.65 539.775 606.034 539.781 606.506C539.775 606.911 539.923 607.241 540.225 607.495C540.534 607.749 541.042 607.958 541.75 608.121L544.127 608.629C545.446 608.914 546.426 609.364 547.067 609.981C547.714 610.598 548.041 611.406 548.047 612.404C548.041 613.281 547.784 614.055 547.276 614.727C546.773 615.392 546.075 615.912 545.18 616.287C544.284 616.662 543.256 616.85 542.095 616.85C540.389 616.85 539.016 616.493 537.975 615.779C536.935 615.059 536.315 614.058 536.115 612.776L539.318 612.467C539.463 613.096 539.772 613.571 540.244 613.892C540.715 614.212 541.329 614.373 542.085 614.373C542.866 614.373 543.492 614.212 543.964 613.892C544.442 613.571 544.681 613.175 544.681 612.703C544.681 612.304 544.526 611.974 544.218 611.714C543.915 611.454 543.444 611.254 542.802 611.115L540.425 610.616C539.088 610.338 538.099 609.869 537.458 609.21C536.817 608.545 536.499 607.704 536.505 606.687C536.499 605.828 536.732 605.084 537.204 604.455C537.682 603.82 538.344 603.33 539.191 602.985C540.044 602.635 541.027 602.459 542.14 602.459C543.773 602.459 545.059 602.807 545.996 603.503C546.94 604.198 547.524 605.139 547.747 606.325ZM553.632 616.578L549.694 602.641H553.042L555.492 612.44H555.619L558.123 602.641H561.435L563.939 612.386H564.075L566.489 602.641H569.846L565.899 616.578H562.478L559.865 607.159H559.675L557.061 616.578H553.632ZM577.819 616.85C576.458 616.85 575.279 616.55 574.281 615.952C573.283 615.353 572.508 614.515 571.958 613.438C571.413 612.361 571.141 611.103 571.141 609.664C571.141 608.224 571.413 606.963 571.958 605.88C572.508 604.797 573.283 603.956 574.281 603.357C575.279 602.759 576.458 602.459 577.819 602.459C579.18 602.459 580.36 602.759 581.358 603.357C582.356 603.956 583.127 604.797 583.672 605.88C584.222 606.963 584.498 608.224 584.498 609.664C584.498 611.103 584.222 612.361 583.672 613.438C583.127 614.515 582.356 615.353 581.358 615.952C580.36 616.55 579.18 616.85 577.819 616.85ZM577.838 614.219C578.576 614.219 579.193 614.016 579.689 613.611C580.185 613.199 580.554 612.649 580.796 611.959C581.044 611.27 581.168 610.501 581.168 609.655C581.168 608.802 581.044 608.03 580.796 607.341C580.554 606.645 580.185 606.092 579.689 605.68C579.193 605.269 578.576 605.063 577.838 605.063C577.081 605.063 576.452 605.269 575.95 605.68C575.454 606.092 575.082 606.645 574.834 607.341C574.592 608.03 574.471 608.802 574.471 609.655C574.471 610.501 574.592 611.27 574.834 611.959C575.082 612.649 575.454 613.199 575.95 613.611C576.452 614.016 577.081 614.219 577.838 614.219ZM587.285 616.578V602.641H590.47V604.963H590.615C590.869 604.159 591.305 603.539 591.922 603.103C592.545 602.662 593.256 602.441 594.054 602.441C594.236 602.441 594.438 602.45 594.662 602.468C594.892 602.48 595.083 602.502 595.234 602.532V605.553C595.095 605.505 594.874 605.463 594.571 605.426C594.275 605.384 593.988 605.363 593.709 605.363C593.111 605.363 592.572 605.493 592.094 605.753C591.623 606.007 591.251 606.361 590.978 606.814C590.706 607.268 590.57 607.791 590.57 608.384V616.578H587.285ZM602.014 616.823C600.919 616.823 599.939 616.541 599.074 615.979C598.209 615.416 597.526 614.6 597.024 613.529C596.522 612.458 596.27 611.158 596.27 609.627C596.27 608.079 596.525 606.772 597.033 605.708C597.547 604.637 598.239 603.829 599.111 603.285C599.982 602.734 600.952 602.459 602.023 602.459C602.84 602.459 603.511 602.598 604.037 602.877C604.564 603.149 604.981 603.478 605.29 603.866C605.598 604.247 605.837 604.607 606.006 604.945H606.143V597.995H609.436V616.578H606.206V614.382H606.006C605.837 614.721 605.592 615.081 605.271 615.462C604.951 615.837 604.527 616.157 604.001 616.423C603.475 616.69 602.813 616.823 602.014 616.823ZM602.93 614.128C603.626 614.128 604.219 613.94 604.709 613.565C605.199 613.184 605.571 612.655 605.825 611.977C606.079 611.3 606.206 610.51 606.206 609.609C606.206 608.708 606.079 607.924 605.825 607.259C605.577 606.594 605.208 606.077 604.718 605.708C604.234 605.339 603.638 605.154 602.93 605.154C602.199 605.154 601.588 605.345 601.098 605.726C600.608 606.107 600.239 606.633 599.991 607.304C599.743 607.976 599.619 608.744 599.619 609.609C599.619 610.48 599.743 611.258 599.991 611.941C600.245 612.619 600.617 613.154 601.107 613.547C601.603 613.934 602.211 614.128 602.93 614.128Z" fill="#18181B"/>
<path d="M559.699 799.268V780.686H566.667C568.095 780.686 569.292 780.934 570.26 781.43C571.234 781.926 571.969 782.621 572.465 783.517C572.967 784.406 573.218 785.443 573.218 786.629C573.218 787.821 572.964 788.855 572.456 789.732C571.954 790.603 571.213 791.278 570.233 791.755C569.253 792.227 568.049 792.463 566.622 792.463H561.658V789.668H566.168C567.003 789.668 567.686 789.554 568.219 789.324C568.751 789.088 569.144 788.746 569.398 788.298C569.658 787.845 569.788 787.288 569.788 786.629C569.788 785.97 569.658 785.407 569.398 784.941C569.138 784.469 568.742 784.112 568.21 783.87C567.677 783.622 566.991 783.498 566.15 783.498H563.065V799.268H559.699ZM569.298 790.848L573.899 799.268H570.142L565.624 790.848H569.298ZM582.142 799.541C580.745 799.541 579.538 799.25 578.522 798.669C577.511 798.083 576.734 797.254 576.19 796.183C575.645 795.107 575.373 793.839 575.373 792.381C575.373 790.948 575.645 789.69 576.19 788.607C576.74 787.518 577.508 786.671 578.494 786.066C579.48 785.455 580.639 785.15 581.97 785.15C582.829 785.15 583.639 785.289 584.401 785.567C585.17 785.839 585.847 786.263 586.434 786.838C587.027 787.412 587.492 788.144 587.831 789.033C588.17 789.917 588.339 790.969 588.339 792.191V793.198H576.916V790.984H585.191C585.185 790.355 585.049 789.796 584.782 789.306C584.516 788.81 584.144 788.419 583.666 788.135C583.195 787.851 582.644 787.709 582.015 787.709C581.344 787.709 580.754 787.872 580.246 788.199C579.738 788.519 579.341 788.943 579.057 789.469C578.779 789.989 578.637 790.561 578.631 791.184V793.116C578.631 793.927 578.779 794.623 579.075 795.203C579.372 795.778 579.786 796.22 580.318 796.528C580.851 796.831 581.474 796.982 582.187 796.982C582.665 796.982 583.098 796.915 583.485 796.782C583.872 796.643 584.208 796.44 584.492 796.174C584.776 795.908 584.991 795.578 585.136 795.185L588.203 795.53C588.01 796.341 587.641 797.048 587.096 797.653C586.558 798.252 585.868 798.718 585.027 799.051C584.187 799.377 583.225 799.541 582.142 799.541ZM591.118 799.268V785.331H594.257V787.7H594.421C594.711 786.901 595.192 786.278 595.863 785.83C596.535 785.377 597.336 785.15 598.268 785.15C599.212 785.15 600.007 785.38 600.654 785.839C601.308 786.293 601.767 786.913 602.034 787.7H602.179C602.487 786.925 603.007 786.308 603.739 785.849C604.477 785.383 605.351 785.15 606.362 785.15C607.644 785.15 608.69 785.555 609.501 786.366C610.312 787.176 610.717 788.359 610.717 789.913V799.268H607.423V790.422C607.423 789.557 607.193 788.924 606.734 788.525C606.274 788.12 605.711 787.917 605.046 787.917C604.254 787.917 603.633 788.165 603.186 788.661C602.744 789.151 602.523 789.789 602.523 790.576V799.268H599.302V790.285C599.302 789.566 599.085 788.991 598.649 788.562C598.22 788.132 597.657 787.917 596.961 787.917C596.49 787.917 596.06 788.038 595.673 788.28C595.286 788.516 594.977 788.852 594.747 789.287C594.518 789.717 594.403 790.219 594.403 790.794V799.268H591.118ZM620.219 799.541C618.822 799.541 617.615 799.25 616.599 798.669C615.589 798.083 614.811 797.254 614.267 796.183C613.723 795.107 613.45 793.839 613.45 792.381C613.45 790.948 613.723 789.69 614.267 788.607C614.817 787.518 615.586 786.671 616.572 786.066C617.558 785.455 618.716 785.15 620.047 785.15C620.906 785.15 621.716 785.289 622.479 785.567C623.247 785.839 623.924 786.263 624.511 786.838C625.104 787.412 625.57 788.144 625.908 789.033C626.247 789.917 626.416 790.969 626.416 792.191V793.198H614.993V790.984H623.268C623.262 790.355 623.126 789.796 622.86 789.306C622.593 788.81 622.221 788.419 621.744 788.135C621.272 787.851 620.721 787.709 620.092 787.709C619.421 787.709 618.831 787.872 618.323 788.199C617.815 788.519 617.418 788.943 617.134 789.469C616.856 789.989 616.714 790.561 616.708 791.184V793.116C616.708 793.927 616.856 794.623 617.152 795.203C617.449 795.778 617.863 796.22 618.395 796.528C618.928 796.831 619.551 796.982 620.265 796.982C620.742 796.982 621.175 796.915 621.562 796.782C621.949 796.643 622.285 796.44 622.569 796.174C622.854 795.908 623.068 795.578 623.213 795.185L626.28 795.53C626.087 796.341 625.718 797.048 625.173 797.653C624.635 798.252 623.945 798.718 623.105 799.051C622.264 799.377 621.302 799.541 620.219 799.541ZM629.34 799.268V780.686H632.625V787.636H632.761C632.93 787.297 633.169 786.937 633.478 786.556C633.786 786.169 634.204 785.839 634.73 785.567C635.256 785.289 635.928 785.15 636.744 785.15C637.821 785.15 638.792 785.425 639.657 785.976C640.528 786.52 641.218 787.328 641.726 788.398C642.24 789.463 642.497 790.769 642.497 792.318C642.497 793.848 642.246 795.149 641.744 796.22C641.242 797.29 640.558 798.107 639.693 798.669C638.828 799.232 637.848 799.513 636.753 799.513C635.955 799.513 635.293 799.38 634.766 799.114C634.24 798.848 633.817 798.527 633.496 798.152C633.182 797.771 632.937 797.411 632.761 797.073H632.571V799.268H629.34ZM632.561 792.3C632.561 793.201 632.689 793.991 632.943 794.668C633.203 795.346 633.575 795.875 634.059 796.256C634.549 796.631 635.141 796.818 635.837 796.818C636.563 796.818 637.171 796.625 637.661 796.238C638.151 795.845 638.52 795.309 638.768 794.632C639.022 793.948 639.149 793.171 639.149 792.3C639.149 791.435 639.025 790.667 638.777 789.995C638.529 789.324 638.16 788.797 637.67 788.416C637.18 788.035 636.569 787.845 635.837 787.845C635.135 787.845 634.54 788.029 634.05 788.398C633.56 788.767 633.188 789.284 632.934 789.95C632.685 790.615 632.561 791.399 632.561 792.3ZM651.459 799.541C650.062 799.541 648.855 799.25 647.839 798.669C646.829 798.083 646.052 797.254 645.507 796.183C644.963 795.107 644.691 793.839 644.691 792.381C644.691 790.948 644.963 789.69 645.507 788.607C646.058 787.518 646.826 786.671 647.812 786.066C648.798 785.455 649.956 785.15 651.287 785.15C652.146 785.15 652.957 785.289 653.719 785.567C654.487 785.839 655.164 786.263 655.751 786.838C656.344 787.412 656.81 788.144 657.149 789.033C657.487 789.917 657.657 790.969 657.657 792.191V793.198H646.233V790.984H654.508C654.502 790.355 654.366 789.796 654.1 789.306C653.834 788.81 653.462 788.419 652.984 788.135C652.512 787.851 651.962 787.709 651.332 787.709C650.661 787.709 650.071 787.872 649.563 788.199C649.055 788.519 648.659 788.943 648.374 789.469C648.096 789.989 647.954 790.561 647.948 791.184V793.116C647.948 793.927 648.096 794.623 648.393 795.203C648.689 795.778 649.103 796.22 649.636 796.528C650.168 796.831 650.791 796.982 651.505 796.982C651.983 796.982 652.415 796.915 652.802 796.782C653.189 796.643 653.525 796.44 653.809 796.174C654.094 795.908 654.309 795.578 654.454 795.185L657.521 795.53C657.327 796.341 656.958 797.048 656.414 797.653C655.875 798.252 655.186 798.718 654.345 799.051C653.504 799.377 652.542 799.541 651.459 799.541ZM660.435 799.268V785.331H663.62V787.654H663.765C664.019 786.85 664.455 786.23 665.072 785.794C665.695 785.353 666.406 785.132 667.204 785.132C667.386 785.132 667.588 785.141 667.812 785.159C668.042 785.171 668.233 785.192 668.384 785.222V788.244C668.245 788.196 668.024 788.153 667.722 788.117C667.425 788.075 667.138 788.053 666.86 788.053C666.261 788.053 665.722 788.183 665.244 788.444C664.773 788.698 664.401 789.051 664.128 789.505C663.856 789.959 663.72 790.482 663.72 791.075V799.268H660.435ZM676.904 799.268V785.331H680.043V787.7H680.207C680.497 786.901 680.978 786.278 681.649 785.83C682.321 785.377 683.122 785.15 684.054 785.15C684.998 785.15 685.793 785.38 686.44 785.839C687.094 786.293 687.553 786.913 687.819 787.7H687.965C688.273 786.925 688.793 786.308 689.525 785.849C690.263 785.383 691.137 785.15 692.148 785.15C693.43 785.15 694.476 785.555 695.287 786.366C696.098 787.176 696.503 788.359 696.503 789.913V799.268H693.209V790.422C693.209 789.557 692.979 788.924 692.52 788.525C692.06 788.12 691.497 787.917 690.832 787.917C690.039 787.917 689.419 788.165 688.972 788.661C688.53 789.151 688.309 789.789 688.309 790.576V799.268H685.088V790.285C685.088 789.566 684.871 788.991 684.435 788.562C684.006 788.132 683.443 787.917 682.747 787.917C682.275 787.917 681.846 788.038 681.459 788.28C681.072 788.516 680.763 788.852 680.533 789.287C680.304 789.717 680.189 790.219 680.189 790.794V799.268H676.904ZM706.005 799.541C704.608 799.541 703.401 799.25 702.385 798.669C701.375 798.083 700.597 797.254 700.053 796.183C699.508 795.107 699.236 793.839 699.236 792.381C699.236 790.948 699.508 789.69 700.053 788.607C700.603 787.518 701.372 786.671 702.358 786.066C703.344 785.455 704.502 785.15 705.833 785.15C706.692 785.15 707.502 785.289 708.264 785.567C709.033 785.839 709.71 786.263 710.297 786.838C710.89 787.412 711.355 788.144 711.694 789.033C712.033 789.917 712.202 790.969 712.202 792.191V793.198H700.779V790.984H709.054C709.048 790.355 708.912 789.796 708.646 789.306C708.379 788.81 708.007 788.419 707.529 788.135C707.058 787.851 706.507 787.709 705.878 787.709C705.207 787.709 704.617 787.872 704.109 788.199C703.601 788.519 703.204 788.943 702.92 789.469C702.642 789.989 702.5 790.561 702.494 791.184V793.116C702.494 793.927 702.642 794.623 702.938 795.203C703.235 795.778 703.649 796.22 704.181 796.528C704.714 796.831 705.337 796.982 706.05 796.982C706.528 796.982 706.961 796.915 707.348 796.782C707.735 796.643 708.071 796.44 708.355 796.174C708.639 795.908 708.854 795.578 708.999 795.185L712.066 795.53C711.873 796.341 711.504 797.048 710.959 797.653C710.421 798.252 709.731 798.718 708.89 799.051C708.05 799.377 707.088 799.541 706.005 799.541Z" fill="#18181B"/>
<path d="M827.943 917.382C827.858 916.59 827.501 915.973 826.872 915.531C826.249 915.09 825.439 914.869 824.441 914.869C823.739 914.869 823.137 914.975 822.635 915.186C822.133 915.398 821.749 915.685 821.483 916.048C821.216 916.411 821.08 916.826 821.074 917.291C821.074 917.679 821.162 918.014 821.337 918.299C821.519 918.583 821.764 918.825 822.072 919.025C822.381 919.218 822.723 919.381 823.098 919.515C823.473 919.648 823.851 919.759 824.232 919.85L825.974 920.286C826.676 920.449 827.35 920.67 827.997 920.948C828.651 921.226 829.234 921.577 829.749 922.001C830.269 922.424 830.68 922.935 830.983 923.534C831.285 924.133 831.436 924.835 831.436 925.639C831.436 926.728 831.158 927.687 830.602 928.515C830.045 929.338 829.241 929.982 828.188 930.448C827.142 930.908 825.874 931.138 824.386 931.138C822.94 931.138 821.685 930.914 820.621 930.466C819.562 930.019 818.733 929.365 818.134 928.506C817.542 927.647 817.221 926.601 817.173 925.367H820.485C820.533 926.014 820.733 926.553 821.083 926.982C821.434 927.412 821.891 927.732 822.454 927.944C823.022 928.156 823.657 928.261 824.359 928.261C825.091 928.261 825.732 928.153 826.283 927.935C826.839 927.711 827.275 927.402 827.589 927.009C827.904 926.61 828.064 926.144 828.07 925.612C828.064 925.128 827.922 924.729 827.644 924.414C827.365 924.094 826.975 923.827 826.473 923.616C825.977 923.398 825.396 923.204 824.731 923.035L822.617 922.491C821.086 922.097 819.877 921.502 818.987 920.703C818.104 919.899 817.663 918.831 817.663 917.5C817.663 916.405 817.959 915.447 818.552 914.624C819.151 913.801 819.964 913.163 820.993 912.709C822.021 912.25 823.185 912.02 824.486 912.02C825.805 912.02 826.96 912.25 827.952 912.709C828.95 913.163 829.734 913.795 830.302 914.606C830.871 915.41 831.164 916.336 831.182 917.382H827.943ZM834.292 930.856V916.919H837.577V930.856H834.292ZM835.944 914.941C835.423 914.941 834.976 914.769 834.601 914.424C834.226 914.073 834.038 913.653 834.038 913.163C834.038 912.667 834.226 912.247 834.601 911.902C834.976 911.551 835.423 911.376 835.944 911.376C836.47 911.376 836.918 911.551 837.287 911.902C837.662 912.247 837.849 912.667 837.849 913.163C837.849 913.653 837.662 914.073 837.287 914.424C836.918 914.769 836.47 914.941 835.944 914.941ZM847.016 936.373C845.836 936.373 844.823 936.213 843.976 935.892C843.129 935.578 842.449 935.154 841.934 934.622C841.42 934.09 841.063 933.5 840.864 932.853L843.822 932.136C843.955 932.408 844.148 932.677 844.402 932.943C844.656 933.216 844.998 933.439 845.428 933.615C845.863 933.796 846.411 933.887 847.07 933.887C848.002 933.887 848.773 933.66 849.384 933.206C849.995 932.759 850.3 932.021 850.3 930.993V928.352H850.137C849.968 928.691 849.72 929.039 849.393 929.396C849.072 929.752 848.646 930.052 848.114 930.294C847.587 930.536 846.925 930.657 846.126 930.657C845.056 930.657 844.085 930.406 843.214 929.904C842.349 929.396 841.659 928.639 841.145 927.635C840.637 926.625 840.383 925.361 840.383 923.843C840.383 922.312 840.637 921.021 841.145 919.968C841.659 918.91 842.352 918.108 843.223 917.564C844.094 917.013 845.065 916.738 846.135 916.738C846.952 916.738 847.624 916.877 848.15 917.155C848.682 917.428 849.106 917.757 849.42 918.144C849.735 918.525 849.974 918.885 850.137 919.224H850.318V916.919H853.558V931.083C853.558 932.275 853.273 933.261 852.705 934.041C852.136 934.822 851.359 935.405 850.373 935.792C849.387 936.18 848.268 936.373 847.016 936.373ZM847.043 928.08C847.738 928.08 848.331 927.911 848.821 927.572C849.311 927.233 849.683 926.746 849.937 926.111C850.191 925.476 850.318 924.714 850.318 923.824C850.318 922.947 850.191 922.179 849.937 921.52C849.689 920.86 849.32 920.349 848.83 919.986C848.346 919.617 847.751 919.433 847.043 919.433C846.311 919.433 845.7 919.623 845.21 920.004C844.72 920.386 844.351 920.909 844.103 921.574C843.855 922.234 843.731 922.984 843.731 923.824C843.731 924.677 843.855 925.424 844.103 926.066C844.357 926.701 844.729 927.197 845.219 927.554C845.715 927.905 846.323 928.08 847.043 928.08ZM860.209 922.69V930.856H856.924V916.919H860.063V919.288H860.227C860.547 918.507 861.058 917.887 861.76 917.428C862.468 916.968 863.342 916.738 864.382 916.738C865.344 916.738 866.182 916.944 866.896 917.355C867.616 917.766 868.172 918.362 868.565 919.142C868.965 919.923 869.161 920.869 869.155 921.983V930.856H865.87V922.491C865.87 921.559 865.629 920.83 865.145 920.304C864.667 919.778 864.004 919.515 863.157 919.515C862.583 919.515 862.072 919.642 861.624 919.896C861.182 920.144 860.835 920.504 860.581 920.975C860.333 921.447 860.209 922.019 860.209 922.69ZM890.691 912.274H894.057V924.414C894.057 925.745 893.743 926.915 893.114 927.926C892.491 928.936 891.614 929.725 890.482 930.294C889.351 930.856 888.03 931.138 886.517 931.138C884.999 931.138 883.674 930.856 882.543 930.294C881.412 929.725 880.535 928.936 879.912 927.926C879.289 926.915 878.977 925.745 878.977 924.414V912.274H882.344V924.133C882.344 924.907 882.513 925.597 882.852 926.202C883.196 926.807 883.68 927.281 884.303 927.626C884.926 927.965 885.664 928.134 886.517 928.134C887.37 928.134 888.108 927.965 888.731 927.626C889.36 927.281 889.844 926.807 890.183 926.202C890.522 925.597 890.691 924.907 890.691 924.133V912.274ZM897.571 936.083V916.919H900.801V919.224H900.992C901.161 918.885 901.4 918.525 901.709 918.144C902.017 917.757 902.435 917.428 902.961 917.155C903.487 916.877 904.159 916.738 904.975 916.738C906.052 916.738 907.023 917.013 907.888 917.564C908.759 918.108 909.448 918.916 909.957 919.986C910.471 921.051 910.728 922.358 910.728 923.906C910.728 925.437 910.477 926.737 909.975 927.808C909.473 928.878 908.789 929.695 907.924 930.258C907.059 930.82 906.079 931.101 904.984 931.101C904.186 931.101 903.523 930.968 902.997 930.702C902.471 930.436 902.047 930.115 901.727 929.74C901.412 929.359 901.167 928.999 900.992 928.661H900.856V936.083H897.571ZM900.792 923.888C900.792 924.789 900.919 925.579 901.173 926.256C901.434 926.934 901.806 927.463 902.289 927.844C902.779 928.219 903.372 928.407 904.068 928.407C904.794 928.407 905.402 928.213 905.892 927.826C906.382 927.433 906.751 926.897 906.999 926.22C907.253 925.536 907.38 924.759 907.38 923.888C907.38 923.023 907.256 922.255 907.008 921.583C906.76 920.912 906.391 920.386 905.901 920.004C905.411 919.623 904.8 919.433 904.068 919.433C903.366 919.433 902.77 919.617 902.28 919.986C901.79 920.355 901.418 920.873 901.164 921.538C900.916 922.203 900.792 922.987 900.792 923.888Z" fill="white"/>
</g>
<defs>
<filter id="filter0_d_4_2" x="297.244" y="-12.7065" width="1134.47" height="1217.51" filterUnits="userSpaceOnUse" color-interpolation-filters="sRGB">
<feFlood flood-opacity="0" result="BackgroundImageFix"/>
<feColorMatrix in="SourceAlpha" type="matrix" values="0 0 0 0 0 0 0 0 0 0 0 0 0 0 0 0 0 0 127 0" result="hardAlpha"/>
<feOffset dy="37.0491"/>
<feGaussianBlur stdDeviation="63.8778"/>
<feComposite in2="hardAlpha" operator="out"/>
<feColorMatrix type="matrix" values="0 0 0 0 0 0 0 0 0 0 0 0 0 0 0 0 0 0 0.11 0"/>
<feBlend mode="normal" in2="BackgroundImageFix" result="effect1_dropShadow_4_2"/>
<feBlend mode="normal" in="SourceGraphic" in2="effect1_dropShadow_4_2" result="shape"/>
</filter>
<clipPath id="clip0_4_2">
<rect width="1728" height="1118" fill="white"/>
</clipPath>
</defs>
</svg>
